<svg width="75" height="75" viewBox="0 0 75 75" fill="none" xmlns="http://www.w3.org/2000/svg">
<g clip-path="url(#clip0_1_286)">
<mask id="mask0_1_286" style="mask-type:luminance" maskUnits="userSpaceOnUse" x="0" y="0" width="75" height="75">
<path d="M73.7498 73.75V1.25021H1.25V73.75H73.7498Z" fill="white" stroke="white" stroke-width="2.5"/>
</mask>
<g mask="url(#mask0_1_286)">
<path d="M35.3027 41.1416C33.8915 41.6413 32.4052 41.896 30.9081 41.8945C23.6383 41.8945 17.7246 35.9808 17.7246 28.711C17.7246 21.4411 23.6383 15.3809 30.9081 15.3809C36.6379 15.3809 41.5251 19.2009 43.3388 24.3165" stroke="#CE3C46" stroke-width="2.5" stroke-miterlimit="10" stroke-linecap="round" stroke-linejoin="round"/>
<path d="M52.4366 24.3165C51.8659 21.5169 50.7479 18.7718 49.2204 16.4673L52.66 13.0277L46.4451 6.81269L43.0055 10.2523C40.7009 8.72489 38.1024 7.60692 35.3026 7.03608V2.19742H26.5136V7.03608C23.714 7.60692 21.1155 8.72489 18.8109 10.2523L15.3713 6.81269L9.15628 13.0277L12.596 16.4673C11.0685 18.7718 9.95052 21.5169 9.37967 24.3165H4.54102V33.1055H9.37967C9.95052 35.9053 11.0685 38.5038 12.596 40.8082L9.15628 44.248L15.3713 50.4629L18.8109 47.0233C21.1155 48.5507 23.714 49.6686 26.5136 50.2395V55.0781H35.3026" stroke="#CE3C46" stroke-width="2.5" stroke-miterlimit="10" stroke-linecap="round" stroke-linejoin="round"/>
<path d="M70.4588 72.8027H35.3026V24.3165H70.4588V72.8027Z" stroke="#3179DF" stroke-width="2.5" stroke-miterlimit="10" stroke-linecap="round" stroke-linejoin="round"/>
<path d="M35.3026 37.5H70.4588" stroke="#3179DF" stroke-width="2.5" stroke-miterlimit="10" stroke-linecap="round" stroke-linejoin="round"/>
<path d="M46.2889 46.2891C46.2889 47.5025 45.3051 48.4863 44.0917 48.4863C42.8782 48.4863 41.8944 47.5025 41.8944 46.2891C41.8944 45.0756 42.8782 44.0918 44.0917 44.0918C45.3051 44.0918 46.2889 45.0756 46.2889 46.2891Z" fill="#3179DF"/>
<path d="M55.078 46.2891C55.078 47.5025 54.0942 48.4863 52.8807 48.4863C51.6673 48.4863 50.6835 47.5025 50.6835 46.2891C50.6835 45.0756 51.6673 44.0918 52.8807 44.0918C54.0942 44.0918 55.078 45.0756 55.078 46.2891Z" fill="#3179DF"/>
<path d="M63.867 46.2891C63.867 47.5025 62.8832 48.4863 61.6698 48.4863C60.4563 48.4863 59.4725 47.5025 59.4725 46.2891C59.4725 45.0756 60.4563 44.0918 61.6698 44.0918C62.8832 44.0918 63.867 45.0756 63.867 46.2891Z" fill="#3179DF"/>
<path d="M55.078 55.0781C55.078 56.2916 54.0942 57.2754 52.8807 57.2754C51.6673 57.2754 50.6835 56.2916 50.6835 55.0781C50.6835 53.8647 51.6673 52.8809 52.8807 52.8809C54.0942 52.8809 55.078 53.8647 55.078 55.0781Z" fill="#3179DF"/>
<path d="M46.2889 55.0781C46.2889 56.2916 45.3051 57.2754 44.0917 57.2754C42.8782 57.2754 41.8944 56.2916 41.8944 55.0781C41.8944 53.8647 42.8782 52.8809 44.0917 52.8809C45.3051 52.8809 46.2889 53.8647 46.2889 55.0781Z" fill="#3179DF"/>
<path d="M46.2889 63.8672C46.2889 65.0807 45.3051 66.0645 44.0917 66.0645C42.8782 66.0645 41.8944 65.0807 41.8944 63.8672C41.8944 62.6537 42.8782 61.6699 44.0917 61.6699C45.3051 61.6699 46.2889 62.6537 46.2889 63.8672Z" fill="#3179DF"/>
<path d="M55.078 63.8672C55.078 65.0807 54.0942 66.0645 52.8807 66.0645C51.6673 66.0645 50.6835 65.0807 50.6835 63.8672C50.6835 62.6537 51.6673 61.6699 52.8807 61.6699C54.0942 61.6699 55.078 62.6537 55.078 63.8672Z" fill="#3179DF"/>
<path d="M61.6699 63.8672V55.0782" stroke="#3179DF" stroke-width="2.5" stroke-miterlimit="10" stroke-linecap="round" stroke-linejoin="round"/>
</g>
</g>
<defs>
<clipPath id="clip0_1_286">
<rect width="75" height="75" fill="white"/>
</clipPath>
</defs>
</svg>
