<svg width="22" height="22" viewBox="0 0 22 22" fill="none" xmlns="http://www.w3.org/2000/svg">
<path d="M17.427 0.646973H4.57642C3.80318 0.646973 3.17554 1.27462 3.17554 2.04785V19.9552C3.17554 20.7284 3.80318 21.3529 4.57642 21.3529H17.427C18.197 21.3529 18.8247 20.7284 18.8247 19.9552V2.04785C18.8247 1.27462 18.2002 0.646973 17.427 0.646973ZM8.21289 18.6837C8.21289 18.9652 7.98642 19.1917 7.70495 19.1917H6.13907C5.8576 19.1917 5.63113 18.9652 5.63113 18.6837V17.299C5.63113 17.0176 5.8576 16.7911 6.13907 16.7911H7.70495C7.98642 16.7911 8.21289 17.0176 8.21289 17.299V18.6837ZM8.21289 14.8014C8.21289 15.0796 7.98642 15.3061 7.70495 15.3061H6.13907C5.8576 15.3061 5.63113 15.0796 5.63113 14.8014V13.4134C5.63113 13.1352 5.8576 12.9087 6.13907 12.9087H7.70495C7.98642 12.9087 8.21289 13.1352 8.21289 13.4134V14.8014ZM8.21289 10.919C8.21289 11.1973 7.98642 11.4237 7.70495 11.4237H6.13907C5.8576 11.4237 5.63113 11.1973 5.63113 10.919V9.53109C5.63113 9.25285 5.8576 9.02315 6.13907 9.02315H7.70495C7.98642 9.02315 8.21289 9.25285 8.21289 9.53109V10.919ZM12.2894 18.6837C12.2894 18.9652 12.0629 19.1917 11.7847 19.1917H10.2155C9.9373 19.1917 9.71083 18.9652 9.71083 18.6837V17.2958C9.71083 17.0176 9.9373 16.7911 10.2155 16.7911H11.7847C12.0629 16.7911 12.2894 17.0176 12.2894 17.2958V18.6837ZM12.2894 14.8014C12.2894 15.0796 12.0629 15.3061 11.7847 15.3061H10.2155C9.9373 15.3061 9.71083 15.0796 9.71083 14.8014V13.4134C9.71083 13.1352 9.9373 12.9087 10.2155 12.9087H11.7847C12.0629 12.9087 12.2894 13.1352 12.2894 13.4134V14.8014ZM12.2894 10.919C12.2894 11.1973 12.0629 11.4237 11.7847 11.4237H10.2155C9.9373 11.4237 9.71083 11.1973 9.71083 10.919V9.53109C9.71083 9.25285 9.9373 9.02315 10.2155 9.02315H11.7847C12.0629 9.02315 12.2894 9.25285 12.2894 9.53109V10.919ZM16.3691 18.6837C16.3691 18.9652 16.1426 19.1917 15.8644 19.1917H14.2952C14.017 19.1917 13.7905 18.9652 13.7905 18.6837V17.2958C13.7905 17.0176 14.017 16.7911 14.2952 16.7911H15.8644C16.1426 16.7911 16.3691 17.0176 16.3691 17.2958V18.6837ZM16.3691 14.8014C16.3691 15.0796 16.1426 15.3061 15.8644 15.3061H14.2952C14.017 15.3061 13.7905 15.0796 13.7905 14.8014V13.4134C13.7905 13.1352 14.017 12.9087 14.2952 12.9087H15.8644C16.1426 12.9087 16.3691 13.1352 16.3691 13.4134V14.8014ZM16.3691 10.919C16.3691 11.1973 16.1426 11.4237 15.8644 11.4237H14.2952C14.017 11.4237 13.7905 11.1973 13.7905 10.919V9.53109C13.7905 9.25285 14.017 9.02315 14.2952 9.02315H15.8644C16.1426 9.02315 16.3691 9.25285 16.3691 9.53109V10.919ZM16.8835 6.09844C16.8835 6.53197 16.5308 6.88462 16.0973 6.88462H5.90289C5.46936 6.88462 5.11671 6.53197 5.11671 6.09844V3.37433C5.11671 2.9408 5.46936 2.59138 5.90289 2.59138H16.0973C16.5308 2.59138 16.8835 2.9408 16.8835 3.37433V6.09844Z" fill="white"/>
</svg>
