<svg width="22" height="22" viewBox="0 0 22 22" fill="none" xmlns="http://www.w3.org/2000/svg">
<g clip-path="url(#clip0_11_342)">
<path d="M20.1666 0H12.5467C12.0426 0 11.3381 0.292024 10.9819 0.64791L0.534997 11.0948C-0.178332 11.8073 -0.178332 12.9755 0.534997 13.6872L8.31357 21.4655C9.02529 22.178 10.1924 22.178 10.9052 21.4647L21.3521 11.0194C21.7079 10.6636 22 9.95793 22 9.45494V1.83341C22 0.825263 21.1747 0 20.1666 0ZM16.4997 7.33337C15.4872 7.33337 14.6663 6.51165 14.6663 5.49996C14.6663 4.4866 15.4872 3.66655 16.4997 3.66655C17.5123 3.66655 18.3334 4.4866 18.3334 5.49996C18.3334 6.51165 17.5123 7.33337 16.4997 7.33337Z" fill="white" />
</g>
<defs>
<clipPath id="clip0_11_342">
<rect width="22" height="22" fill="white"/>
</clipPath>
</defs>
</svg>
