<svg width="22" height="22" viewBox="0 0 22 22" fill="none" xmlns="http://www.w3.org/2000/svg">
<g clip-path="url(#clip0_11_337)">
<path d="M0.63793 18.7109L0.61593 18.7329C0.318931 18.0839 0.131931 17.3469 0.0549316 16.5329C0.131931 17.3359 0.340931 18.0619 0.63793 18.7109ZM7.69991 9.21792C8.39425 9.21792 9.06014 8.9421 9.55111 8.45113C10.0421 7.96016 10.3179 7.29426 10.3179 6.59993C10.3179 5.90559 10.0421 5.2397 9.55111 4.74873C9.06014 4.25776 8.39425 3.98193 7.69991 3.98193C7.00558 3.98193 6.33968 4.25776 5.84871 4.74873C5.35774 5.2397 5.08192 5.90559 5.08192 6.59993C5.08192 7.29426 5.35774 7.96016 5.84871 8.45113C6.33968 8.9421 7.00558 9.21792 7.69991 9.21792Z" fill="white" />
<path d="M15.609 0H6.39098C2.38699 0 0 2.38699 0 6.39098V15.609C0 16.808 0.208999 17.853 0.615998 18.733C1.562 20.8229 3.58599 21.9999 6.39098 21.9999H15.609C19.613 21.9999 21.9999 19.613 21.9999 15.609V6.39098C21.9999 2.38699 19.613 0 15.609 0ZM20.207 11.55C19.349 10.813 17.963 10.813 17.105 11.55L12.529 15.477C11.671 16.214 10.285 16.214 9.42698 15.477L9.05298 15.169C8.27198 14.487 7.02898 14.421 6.14898 15.015L2.03499 17.776C1.793 17.16 1.65 16.445 1.65 15.609V6.39098C1.65 3.28899 3.28899 1.65 6.39098 1.65H15.609C18.711 1.65 20.3499 3.28899 20.3499 6.39098V11.671L20.207 11.55Z" fill="white" />
</g>
<defs>
<clipPath id="clip0_11_337">
<rect width="22" height="22" fill="white"/>
</clipPath>
</defs>
</svg>
