<svg width="68" height="17" viewBox="0 0 68 17" fill="none" xmlns="http://www.w3.org/2000/svg">
<path d="M0.333008 16.628V11.498H1.52101C2.01301 10.358 2.36701 9.15203 2.58301 7.88003C2.79901 6.60804 2.90701 4.94003 2.90701 2.87603V1.40003H12.069V11.498H13.581L13.221 16.628H10.899V14H3.01501L2.83501 16.628H0.333008ZM9.29701 3.90203H5.57101V5.18004C5.57101 7.55604 5.19301 9.66203 4.43701 11.498H9.29701V3.90203Z" fill="#DC413B"/>
<path d="M15.2286 16.88V4.35204H17.9646V5.73803C18.7326 4.69404 19.7346 4.17204 20.9706 4.17204C22.1706 4.17204 23.2026 4.62204 24.0666 5.52203C24.9306 6.42203 25.3626 7.64603 25.3626 9.19403C25.3626 10.73 24.9306 11.948 24.0666 12.848C23.2146 13.736 22.1826 14.18 20.9706 14.18C19.7706 14.18 18.7686 13.7 17.9646 12.74V16.88H15.2286ZM18.5946 11.12C19.0506 11.612 19.6086 11.858 20.2686 11.858C20.9286 11.858 21.4866 11.612 21.9426 11.12C22.3986 10.616 22.6266 9.96203 22.6266 9.15803C22.6266 8.37803 22.3986 7.74203 21.9426 7.25003C21.4866 6.74603 20.9286 6.49403 20.2686 6.49403C19.6086 6.49403 19.0506 6.74603 18.5946 7.25003C18.1506 7.74203 17.9286 8.39003 17.9286 9.19403C17.9286 9.97403 18.1506 10.616 18.5946 11.12Z" fill="#DC413B"/>
<path d="M29.6791 16.934C28.8151 16.934 28.0051 16.712 27.2491 16.268L28.1671 14.288C28.5871 14.54 28.9771 14.666 29.3371 14.666C29.7691 14.666 30.0871 14.456 30.2911 14.036L26.5111 4.35204H29.4091L31.6051 10.922L33.7111 4.35204H36.5551L32.8471 14.234C32.4751 15.23 32.0551 15.926 31.5871 16.322C31.1191 16.73 30.4831 16.934 29.6791 16.934Z" fill="#DC413B"/>
<path d="M45.206 6.69203H40.904V14H38.168V4.35204H45.206V6.69203Z" fill="#DC413B"/>
<path d="M55.1534 12.758C54.1574 13.73 52.9154 14.216 51.4274 14.216C49.9394 14.216 48.6974 13.736 47.7014 12.776C46.7174 11.804 46.2254 10.61 46.2254 9.19403C46.2254 7.79003 46.7234 6.60203 47.7194 5.63003C48.7274 4.65803 49.9754 4.17204 51.4634 4.17204C52.9514 4.17204 54.1874 4.65803 55.1714 5.63003C56.1674 6.59003 56.6654 7.77803 56.6654 9.19403C56.6654 10.598 56.1614 11.786 55.1534 12.758ZM51.4634 11.858C52.2194 11.858 52.8254 11.606 53.2814 11.102C53.7374 10.586 53.9654 9.95004 53.9654 9.19403C53.9654 8.46203 53.7254 7.83804 53.2454 7.32203C52.7774 6.79403 52.1714 6.53004 51.4274 6.53004C50.6714 6.53004 50.0654 6.78803 49.6094 7.30404C49.1534 7.80803 48.9254 8.43804 48.9254 9.19403C48.9254 9.92603 49.1594 10.556 49.6274 11.084C50.1074 11.6 50.7194 11.858 51.4634 11.858Z" fill="#DC413B"/>
<path d="M67.6285 4.35204V14H64.9825V8.38404L61.2205 14H58.6465V4.35204H61.2925V9.98604L65.0545 4.35204H67.6285ZM65.2525 2.71403C64.7245 3.19403 64.0465 3.43403 63.2185 3.43403C62.3905 3.43403 61.7065 3.19403 61.1665 2.71403C60.6385 2.23403 60.3145 1.56203 60.1945 0.698035L61.7965 0.410034C62.0485 1.21403 62.5225 1.61603 63.2185 1.61603C63.9145 1.61603 64.3885 1.21403 64.6405 0.410034L66.2425 0.698035C66.1225 1.56203 65.7925 2.23403 65.2525 2.71403Z" fill="#DC413B"/>
</svg>
