<svg width="103" height="181" viewBox="0 0 103 181" fill="none" xmlns="http://www.w3.org/2000/svg">
<path fill-rule="evenodd" clip-rule="evenodd" d="M140.37 69.5109C137.165 66.6865 132.556 66.7512 129.912 67.5711C131.644 65.4339 135.68 63.6803 136.868 63.4678C137.772 63.8089 140.37 66.4911 140.37 69.5109ZM150.603 57.8156C148.495 46.4827 122.294 53.993 109.098 49.1791C108.846 52.4831 113.16 57.7765 117.288 59.7347C110.233 65.89 103.899 78.2908 102.62 93.4407C101.346 78.2908 95.0116 65.89 87.9568 59.7354C92.0837 57.7772 96.4028 52.4838 96.1462 49.1806C82.9513 53.9944 56.7488 46.4848 54.6373 57.8177C54.1933 60.2172 55.3414 63.8714 56.5812 64.923C56.8032 64.1627 57.9618 61.6759 61.6143 61.1188C80.0742 58.3151 95.4867 86.9124 81.5742 98.4748C81.3622 98.6524 81.4824 98.9757 81.7686 98.9757H123.48C123.762 98.9757 123.883 98.6517 123.673 98.4755C109.757 86.9138 125.17 58.3165 143.631 61.1203C147.285 61.6773 148.441 64.1634 148.664 64.9237C149.904 63.8721 151.051 60.2179 150.604 57.8184L150.603 57.8156ZM155.094 31.8067C154.761 30.736 165.586 30.709 165.586 37.5194C165.586 42.0824 159.111 44.2438 159.111 48.9802C159.111 51.1857 161.472 52.8028 162.196 52.8028C160.528 45.2002 167.424 49.1791 169.287 50.6002C165.586 40.3757 173.915 40.4397 173.095 35.7516C172.525 32.4761 165.284 33.4651 162.664 31.8067C158.014 28.8652 152.513 17.4164 148.888 28.8652C155.646 35.1711 151.714 44.4541 143.134 44.4541C143.134 44.4541 143.087 45.8148 143.165 45.9228C153.398 45.4197 156.965 37.8597 155.094 31.8067ZM35.708 50.6002C37.57 49.1791 44.465 45.2002 42.801 52.8028C43.522 52.8028 45.8831 51.1857 45.8831 48.9802C45.8831 44.2438 39.4079 42.0824 39.4079 37.5194C39.4079 30.709 50.2319 30.736 49.9004 31.8067C48.0313 37.8604 51.5983 45.4204 61.8314 45.9228C61.907 45.8148 61.8596 44.4534 61.8596 44.4534C53.2836 44.4534 49.3511 35.1711 56.1055 28.8645C52.4805 17.4164 46.9795 28.8645 42.3295 31.806C39.7091 33.4651 32.4683 32.4754 31.8986 35.7516C31.0821 40.4411 39.4086 40.3771 35.7087 50.6016L35.708 50.6002ZM64.7636 69.5109C67.9715 66.6865 72.5818 66.7512 75.2221 67.5711C73.4973 65.4339 69.4538 63.6803 68.2691 63.4678C67.3642 63.8089 64.7629 66.4911 64.7629 69.5109H64.7636ZM107.488 6.11764L102.498 0L97.5056 6.11764L102.496 12.555L107.489 6.11764H107.488ZM135.983 24.6148L132.435 20.2678L128.887 24.6148L132.434 28.8637L135.984 24.6148H135.983ZM164.775 150.28L160.276 145.494L155.776 150.279L160.276 154.479L164.776 150.279L164.775 150.28ZM76.1092 24.6148L72.5606 20.2678L69.0141 24.6148L72.5613 28.8637L76.1099 24.6148H76.1092ZM65.942 45.9235H79.1821C90.3136 45.9235 95.322 39.0555 96.8354 33.0999H108.162C109.676 39.0555 114.682 45.9228 125.817 45.9228H139.057C139.057 45.9228 141.373 42.7645 141.954 41.2006C144.045 35.5732 141.373 32.9479 137.474 32.9479L132.434 37.5393L127.395 32.9493C123.497 32.9493 120.825 35.5732 122.916 41.2013C123.183 41.9204 123.822 42.9777 124.427 43.907C119.729 43.2583 113.732 40.0254 112.417 33.0999C112.417 33.0999 115.888 27.5578 116.76 25.3147C119.889 17.248 115.892 13.9512 110.046 13.9512L102.498 22.8683L94.9508 13.9512C89.1048 13.9512 85.108 17.248 88.241 25.3147C89.1083 27.5578 92.5834 33.1006 92.5834 33.1006C91.2651 40.0254 85.2692 43.2583 80.5712 43.9077C81.1791 42.9769 81.8153 41.9204 82.0811 41.2006C84.1686 35.5732 81.5036 32.9486 77.6022 32.9486L72.562 37.54L67.5219 32.95C63.6212 32.95 60.9562 35.574 63.0437 41.202C63.6248 42.7652 65.9441 45.9242 65.9441 45.9242L65.942 45.9235ZM202.824 87.1739C200.268 88.4741 185.276 95.5332 166.071 92.922C166.27 92.0013 166.439 91.0743 166.577 90.1424C179.359 88.6056 189.749 86.4264 196.371 82.7245C203.918 78.5019 207.219 68.4216 203.409 60.9234C203.31 60.7344 203.037 60.7003 202.9 60.8595C200.812 63.2753 187.686 77.6279 167.004 82.09C166.951 81.013 166.853 79.9387 166.711 78.8699C176.756 73.1445 186.562 66.5473 191.233 60.5149C198.291 51.3946 197.642 39.7604 190.925 33.8289C190.89 33.7991 190.85 33.777 190.806 33.7641C190.762 33.7513 190.717 33.7479 190.672 33.7543C190.627 33.7607 190.583 33.7767 190.545 33.8012C190.507 33.8257 190.474 33.8582 190.449 33.8964C188.324 37.4206 168.432 69.7354 146.593 83.6873C146.327 83.8585 146.058 84.0262 145.787 84.1904C145.161 84.5726 145.092 85.3911 145.625 85.8764C148.144 88.17 149.708 91.3617 149.708 94.9058C149.708 101.068 144.984 106.193 138.737 107.305C135.563 107.923 130.983 107.743 126.581 106.28C126.383 106.216 126.178 106.347 126.178 106.547V126.061C126.178 126.375 126.653 126.453 126.765 126.153C129.441 119.028 137.449 117.515 140.952 117.515C142.212 125.129 144.464 131.435 147.388 134.83C152.151 140.346 159.929 140.269 163.301 136.455C163.328 136.424 163.348 136.387 163.359 136.347C163.37 136.307 163.372 136.265 163.365 136.224C163.358 136.183 163.341 136.144 163.317 136.11C163.293 136.077 163.261 136.049 163.225 136.029C161.244 134.885 149.907 127.888 147.638 116.424C148.529 116.12 149.399 115.76 150.245 115.346C153.905 121.433 159.231 126.855 163.519 128.926C170.722 132.398 177.316 130.709 180.241 125.625C180.347 125.446 180.217 125.223 180.002 125.203C175.546 124.846 161.873 120.907 156.051 111.31C156.724 110.696 157.367 110.048 157.978 109.371C164.071 114.033 172.684 118.154 178.851 118.996C186.067 119.982 194.243 117.667 194.441 109.233C194.444 109.064 194.294 108.926 194.116 108.936C191.55 109.092 174.566 109.835 162.464 102.852C162.885 102.049 163.277 101.231 163.64 100.4C163.64 100.4 181.926 104.744 190.59 103.306C199.2 101.878 204.243 95.4259 203.27 87.3991C203.242 87.2001 203.01 87.0815 202.825 87.176L202.824 87.1739ZM41.3561 100.397C41.72 101.228 42.1131 102.047 42.5345 102.85C30.436 109.829 13.4599 109.092 10.8826 108.934C10.7016 108.924 10.5503 109.069 10.5546 109.234C10.756 117.665 18.9291 119.98 26.1451 118.993C32.3093 118.152 40.9263 114.031 47.0177 109.369C47.6291 110.046 48.2722 110.693 48.9446 111.309C43.1198 120.905 29.4485 124.845 24.9936 125.202C24.778 125.223 24.6522 125.446 24.7547 125.625C27.6791 130.709 34.273 132.397 41.4798 128.925C45.7636 126.854 51.0901 121.433 54.7483 115.346C55.5949 115.758 56.466 116.118 57.3567 116.423C55.0876 127.888 43.7511 134.883 41.7697 136.029C41.7335 136.049 41.7022 136.077 41.6782 136.111C41.6541 136.144 41.6379 136.183 41.6306 136.224C41.6234 136.265 41.6253 136.307 41.6363 136.347C41.6472 136.387 41.667 136.424 41.694 136.455C45.0659 140.268 52.846 140.345 57.6091 134.83C60.5335 131.435 62.7821 125.128 64.0418 117.514C67.548 117.514 75.5536 119.027 78.2292 126.152C78.3444 126.453 78.8195 126.374 78.8195 126.06V106.546C78.8195 106.347 78.6109 106.215 78.413 106.279C74.0126 107.743 69.4305 107.921 66.2601 107.302C60.0111 106.192 55.2855 101.068 55.2855 94.9058C55.2855 91.3631 56.8548 88.1679 59.3685 85.875C59.9058 85.3919 59.833 84.5733 59.2116 84.1911C58.9386 84.027 58.6676 83.8596 58.3987 83.6887C36.5726 69.7446 16.6918 37.4519 14.5485 33.9049C14.5234 33.8657 14.4901 33.8324 14.4511 33.8071C14.412 33.7819 14.3681 33.7653 14.3221 33.7586C14.2762 33.7519 14.2293 33.7551 14.1847 33.7681C14.1401 33.7811 14.0988 33.8035 14.0636 33.8339C7.35655 39.7689 6.7048 51.3981 13.7632 60.5163C18.4343 66.5487 28.2404 73.1459 38.2818 78.8713C38.1403 79.9397 38.0436 81.0135 37.992 82.09C17.3273 77.6322 4.21087 63.3037 2.1029 60.8709C1.96153 60.7046 1.6823 60.738 1.58687 60.9277C-2.21623 68.4309 1.08497 78.5026 8.62472 82.7253C15.2469 86.4271 25.6376 88.6063 38.419 90.1432C38.5571 91.075 38.7256 92.002 38.9244 92.9227C19.7392 95.5304 4.75447 88.4876 2.17854 87.1774C1.98768 87.0794 1.75582 87.2009 1.73178 87.4034C0.761216 95.4295 5.80068 101.875 14.4107 103.304C23.0723 104.742 41.3575 100.397 41.3575 100.397L41.3561 100.397ZM160.277 160.642L153.614 155.373C150.955 156.965 149.001 159.491 148.242 162.453C144.233 163.017 133.308 160.578 134.37 158.96C146.345 142.03 137.186 131.95 126.177 132.511V143.88C126.177 147.532 123.007 150.491 119.101 150.491H111.499C106.046 150.491 102.496 156 102.496 156C102.496 156 98.9462 150.49 93.4932 150.49H85.892C81.9828 150.49 78.8195 147.531 78.8195 143.88V132.511C67.811 131.95 58.6447 142.029 70.623 158.959C71.6763 160.561 60.4451 163.124 55.1773 162.476C53.789 161.03 51.7871 160.117 49.5455 160.117C48.5924 160.118 47.6469 160.289 46.7533 160.622C46.7533 160.622 26.0525 140.921 25.6736 140.728L25.8433 140.331C27.0238 138.114 25.2191 135.698 24.0782 135.868C25.4036 134.27 25.4651 127.275 18.112 125.656C18.3276 127.061 18.4371 129.929 18.4371 129.929C18.4371 129.929 12.7622 126.845 9.91198 129.507C7.40816 132.486 10.8826 137.891 10.8826 137.891C10.8826 137.891 7.97862 137.962 6.54716 137.84C8.65159 144.995 15.7106 144.489 17.2375 143.077C17.1386 144.214 19.6905 145.836 21.8536 144.535L22.8036 144.074C22.9712 144.299 43.1325 163.445 43.1325 163.445C42.2065 164.827 41.7661 166.522 42.0701 168.33C42.5487 171.154 44.8885 173.495 47.8787 174.103C49.9901 174.53 51.9751 174.118 53.567 173.181L58.9041 178.16C59.3777 178.593 60.021 178.863 60.7378 178.812C62.0434 178.724 63.0211 177.661 62.9221 176.441C62.8797 175.89 62.5998 175.418 62.2138 175.059C62.129 174.965 56.7778 169.972 56.7778 169.972C61.1923 166.862 69.4171 164.67 76.2428 164.67C77.4417 164.67 78.0058 163.649 77.593 162.65C74.5003 155.175 81.1487 149.759 88.0268 154.167C91.0269 156.089 94.0743 159.876 96.3703 166.193C85.0861 168.939 70.9171 176.506 68.0506 184.765C66.9464 187.954 70.5926 192.301 75.0206 193.175C75.0594 193.184 75.0995 193.185 75.1385 193.177C75.1776 193.17 75.2148 193.156 75.2482 193.134C75.2815 193.112 75.3102 193.084 75.3327 193.051C75.3551 193.018 75.3709 192.981 75.379 192.942C77.692 180.612 90.8841 171.425 97.748 169.864C98.0923 170.793 97.9799 170.492 98.3249 171.418C90.8487 174.972 83.5988 182.466 81.529 191.378C80.5782 195.458 85.1059 199.137 88.8433 200.143C89.0313 200.193 89.2158 200.062 89.2264 199.881C89.9368 188.612 94.8872 179.041 99.3223 174.687C99.4438 175.539 99.535 176.394 99.5959 177.252C99.5959 177.252 95.0547 189.969 95.0547 199.248C95.0547 203.565 101.438 206.579 102.38 207C103.559 206.579 109.937 203.565 109.937 199.248C109.937 189.969 105.397 177.252 105.397 177.252C105.459 176.394 105.552 175.538 105.674 174.687C110.107 179.042 115.06 188.608 115.768 199.877C115.772 199.921 115.785 199.964 115.808 200.003C115.83 200.041 115.86 200.074 115.897 200.099C115.933 200.125 115.975 200.142 116.018 200.149C116.062 200.157 116.106 200.155 116.149 200.143C119.892 199.137 124.415 195.458 123.468 191.378C121.394 182.468 114.148 174.972 106.673 171.418C107.014 170.492 106.901 170.792 107.247 169.864C114.114 171.424 127.301 180.612 129.615 192.941C129.632 193.02 129.679 193.089 129.746 193.132C129.813 193.176 129.895 193.191 129.973 193.174C134.398 192.3 138.05 187.951 136.94 184.763C134.08 176.504 119.908 168.938 108.621 166.192C110.922 159.875 113.97 156.088 116.97 154.166C123.844 149.758 130.493 155.173 127.4 162.648C126.987 163.648 127.547 164.668 128.75 164.668C136.472 164.668 145.984 167.471 149.749 171.231C152.154 174.859 156.599 177.18 161.615 176.683C167.314 176.122 171.961 171.819 172.603 166.499C173.163 161.837 170.765 157.652 166.942 155.372L160.276 160.642L160.277 160.642ZM111.169 126.685C113.543 125.8 117.264 126.516 117.137 129.96C117.107 130.742 118.196 130.742 118.276 129.944C118.986 124.786 115.519 123.301 111.889 123.905C111.438 122.131 111.069 120.581 110.65 119.045C110.315 117.801 110.192 115.466 111.623 115.466C112.395 115.466 112.085 117.638 112.012 118.573C111.948 119.394 112.242 119.891 112.905 119.914C113.317 119.931 113.833 119.401 114.142 119.05C116.219 116.688 116.701 113.033 114.267 111.271C112.232 109.791 107.133 110.892 105.732 113C105.52 112.206 104.509 110.895 104.025 110.324C103.553 109.766 103.431 109.385 104.083 108.896C104.39 108.659 105.32 107.729 105.32 106.77C105.32 106.203 104.881 105.156 103.492 105.156C102.394 105.156 101.175 105.919 101.175 107.621C101.175 108 101.267 108.405 101.509 108.841C100.817 108.726 98.9335 108.773 97.9665 109.013L111.336 145.89C115.163 143.991 117.969 140.985 117.969 137.758C117.969 135.009 113.939 135.921 111.983 138.066C111.354 134.58 110.794 131.36 110.182 128.151C110.015 127.266 110.462 126.948 111.169 126.682V126.685ZM92.2639 101.634L95.0731 109.478C92.6683 110.054 88.8001 111.816 88.8001 114.15C88.8001 117.258 94.2715 119.281 97.4342 119.038C97.2772 119.747 97.4582 120.379 97.9502 120.957C96.8022 120.957 94.6363 121.494 93.9251 122.264C92.2477 120.694 89.6237 120.122 88.376 121.077C87.1227 122.041 87.0852 123.672 88.3937 125.517C89.3056 126.794 89.6477 128.053 88.6227 129.533C92.435 129.533 91.0311 124.55 92.5248 124.55C92.329 125.517 92.4484 126.634 92.8825 127.874C93.1695 128.698 93.1695 129.284 92.6775 130.077C91.4475 132.054 89.5346 136.592 89.7933 140.698C88.5435 140.691 87.908 140.384 88.3484 138.667C88.5124 138.029 88.1201 137.573 87.6005 138.36C87.0265 139.229 86.7494 140.712 86.7494 141.346C86.7494 145.001 91.0827 145.737 92.7354 144.964C97.519 149.618 106.916 148.376 110.061 146.815L93.518 101.19C93.1801 100.328 91.967 100.74 92.2639 101.635V101.634ZM91.6913 139.217C91.3492 137.339 93.9492 133.982 97.2567 130.742C96.5527 132.854 96.9902 136.492 98.3708 137.745C95.9716 137.745 93.1221 138.198 91.6906 139.217H91.6913Z" fill="white" fill-opacity="0.5"/>
</svg>
