<svg width="30" height="30" viewBox="0 0 30 30" fill="none" xmlns="http://www.w3.org/2000/svg">
<g clip-path="url(#clip0_11_504)">
<path d="M19.9617 16.1501H16.1454V12.3338C16.1454 11.7013 15.6326 11.1885 15.0001 11.1885C14.3675 11.1885 13.8547 11.7013 13.8547 12.3338V17.2955C13.8547 17.928 14.3675 18.4408 15.0001 18.4408H19.9617C20.5942 18.4408 21.107 17.928 21.107 17.2955C21.107 16.6629 20.5942 16.1501 19.9617 16.1501Z" fill="#2D3241"/>
<path d="M16.1452 6.66227V4.3102H17.2905C17.923 4.3102 18.4358 3.79738 18.4358 3.16486C18.4358 2.53234 17.923 2.01953 17.2905 2.01953H12.7092C12.0767 2.01953 11.5638 2.53234 11.5638 3.16486C11.5638 3.79738 12.0767 4.3102 12.7092 4.3102H13.8545V6.66221C8.49664 7.23555 4.30994 11.7831 4.30994 17.2906C4.30994 23.1851 9.10543 27.9807 14.9998 27.9807C20.8943 27.9806 25.6897 23.1851 25.6898 17.2908C25.6897 11.7832 21.5029 7.23561 16.1452 6.66227ZM14.9998 25.6899C10.3685 25.6899 6.60066 21.922 6.60066 17.2906C6.60066 12.6593 10.3685 8.89141 14.9998 8.89141C19.6311 8.89141 23.399 12.6593 23.3991 17.2908C23.399 21.9221 19.6312 25.6899 14.9998 25.6899ZM29.9778 14.3115C29.182 10.3107 26.8759 6.85938 23.4843 4.59309C22.9583 4.2417 22.2471 4.38309 21.8957 4.90914C21.5442 5.43508 21.6857 6.14635 22.2116 6.49779C25.0945 8.42412 27.0547 11.3578 27.731 14.7584C27.8395 15.3034 28.3179 15.6805 28.8532 15.6805C28.9272 15.6805 29.0023 15.6733 29.0778 15.6583C29.6982 15.5349 30.1011 14.9319 29.9778 14.3115ZM8.10429 4.90914C7.75285 4.3832 7.04146 4.2417 6.51564 4.59309C3.12406 6.85932 0.817926 10.3107 0.0222226 14.3115C-0.101176 14.9319 0.301773 15.5349 0.922164 15.6583C0.997574 15.6732 1.07275 15.6805 1.14681 15.6805C1.68207 15.6805 2.16054 15.3034 2.26894 14.7583C2.94523 11.3577 4.90543 8.42406 7.7883 6.49779C8.31423 6.14635 8.45574 5.43508 8.10429 4.90914Z" fill="#2D3241"/>
</g>
<defs>
<clipPath id="clip0_11_504">
<rect width="30" height="30" fill="white"/>
</clipPath>
</defs>
</svg>
