<svg width="224" height="32" viewBox="0 0 224 32" fill="none" xmlns="http://www.w3.org/2000/svg">
<path d="M55.2026 11.0488C55.2026 11.7216 54.987 12.1061 54.4837 12.1061H49.8109V24.2166C49.8109 24.7933 49.5952 25.1778 49.092 25.1778H48.445C48.0136 25.1778 47.7261 24.7933 47.7261 24.2166V12.1061H43.1251C42.6219 12.1061 42.4062 11.7216 42.4062 11.0488V10.7605C42.4062 10.0877 42.6219 9.79932 43.1251 9.79932H54.4837C54.987 9.79932 55.2026 10.0877 55.2026 10.7605V11.0488Z" fill="#2D3241"/>
<path d="M68.8609 19.3154C68.8609 20.0843 68.7171 20.4688 68.3577 20.4688H58.4369C58.4369 22.1027 59.2996 22.9678 61.0249 22.9678H62.5346C62.9659 22.9678 63.2535 23.2561 63.2535 23.9289V24.2173C63.2535 24.794 62.9659 25.1784 62.5346 25.1784H61.2406C59.9466 25.1784 58.9401 24.9862 58.1493 24.5056C56.9272 23.8328 56.3521 22.7755 56.3521 21.3338V16.9125C56.3521 15.4708 56.9272 14.5096 58.0774 13.8368C58.9401 13.2601 59.9466 13.0679 61.1687 13.0679H64.907C65.9134 13.0679 66.7761 13.2601 67.495 13.7407C68.4296 14.3174 68.8609 15.2785 68.8609 16.4319V19.3154ZM66.9918 18.162V16.6241C66.9918 16.1436 66.5604 15.8552 65.8415 15.5669C65.2664 15.3746 64.7632 15.3746 64.2599 15.3746H61.3844C59.3714 15.3746 58.365 15.7591 58.365 16.7203V18.162H66.9918Z" fill="#2D3241"/>
<path d="M83.7422 21.3338C83.7422 23.8328 82.3044 25.0823 79.4288 25.0823H73.2463V27.5813C73.2463 28.158 72.9587 28.5425 72.5274 28.5425H71.9522C71.449 28.5425 71.2333 28.158 71.2333 27.5813V16.6241C71.2333 15.1824 71.7366 14.2213 72.8149 13.6446C73.4619 13.2601 74.4684 13.0679 75.7624 13.0679H78.9255C82.1606 13.0679 83.7422 14.2213 83.7422 16.6241V21.3338ZM81.7292 21.3338V16.6241C81.7292 16.0475 81.3698 15.663 80.6509 15.4708C80.2914 15.3746 79.7882 15.2785 78.9974 15.2785H75.9062C74.1089 15.2785 73.2463 15.7591 73.2463 16.7203V22.8716H79.4288C80.9385 22.8716 81.7292 22.3911 81.7292 21.3338Z" fill="#2D3241"/>
<path d="M93.8787 22.0066L99.0547 13.9329C99.4142 13.3562 99.8455 13.0679 100.421 13.0679H100.636C100.924 13.0679 101.14 13.2601 101.355 13.5484C101.571 13.8368 101.643 14.2213 101.643 14.7018V24.2173C101.643 24.794 101.355 25.1784 100.852 25.1784H100.421C99.9174 25.1784 99.6298 24.794 99.6298 24.2173V17.297L95.0289 24.3134C94.6695 24.8901 94.31 25.1784 93.8787 25.1784C93.5192 25.1784 93.1598 24.8901 92.7284 24.3134L88.1994 17.297V24.2173C88.1994 24.794 87.9118 25.1784 87.4086 25.1784H86.9054C86.4021 25.1784 86.1865 24.794 86.1865 24.2173V14.4135C86.1865 14.1251 86.2584 13.7407 86.474 13.4523C86.6897 13.2601 86.9772 13.0679 87.1929 13.0679H87.4086C87.9118 13.0679 88.415 13.3562 88.7026 13.9329L93.8787 22.0066Z" fill="#2D3241"/>
<path d="M116.453 21.4299C116.453 22.7755 115.877 23.8328 114.799 24.5056C114.08 24.9862 113.146 25.1784 111.995 25.1784H108.688C106.532 25.1784 105.166 24.5056 104.447 23.0639C104.231 22.5833 104.088 22.0066 104.088 21.4299V16.9125C104.088 15.9513 104.447 15.0863 105.094 14.4135C105.957 13.5484 107.107 13.0679 108.688 13.0679H111.995C114.943 13.0679 116.453 14.3174 116.453 16.9125V21.4299ZM114.368 21.4299V16.7203C114.368 15.7591 113.577 15.2785 111.924 15.2785H108.688C108.113 15.2785 107.61 15.3746 107.107 15.5669C106.388 15.8552 106.029 16.3358 106.029 16.9125V21.4299C106.029 22.0066 106.388 22.3911 107.107 22.6794C107.61 22.8717 108.113 22.9678 108.688 22.9678H111.924C112.499 22.9678 112.93 22.8717 113.433 22.6794C114.08 22.3911 114.368 22.0066 114.368 21.4299Z" fill="#2D3241"/>
<path d="M131.693 24.2173C131.693 24.794 131.334 25.1784 130.759 25.1784H123.354C121.988 25.1784 120.982 24.9862 120.335 24.6017C119.256 24.025 118.681 23.0639 118.681 21.526V16.7203C118.681 14.3174 120.119 13.0679 122.995 13.0679H130.831C131.334 13.0679 131.621 13.4523 131.621 14.029V14.3174C131.621 14.9902 131.334 15.2785 130.831 15.2785H123.067C122.42 15.2785 121.916 15.3746 121.629 15.4708C120.982 15.663 120.694 16.0475 120.694 16.6241V21.4299C120.694 22.3911 121.629 22.9678 123.426 22.9678H130.903C131.406 22.9678 131.693 23.2561 131.693 23.9289V24.2173Z" fill="#2D3241"/>
<path d="M134.138 24.3134V14.029C134.138 13.4523 134.425 13.0679 134.928 13.0679H135.432C135.935 13.0679 136.15 13.4523 136.15 14.029V21.8144L144.921 13.2601C144.993 13.164 145.137 13.0679 145.352 13.0679H145.927C146.503 13.0679 146.79 13.3562 146.79 13.9329V24.2173C146.79 24.794 146.503 25.1784 145.999 25.1784H145.496C145.065 25.1784 144.777 24.794 144.777 24.2173V16.4319L136.079 24.9862C135.935 25.0823 135.791 25.1784 135.647 25.1784H135C134.425 25.1784 134.138 24.8901 134.138 24.3134Z" fill="#2D3241"/>
<path d="M162.246 24.2173C162.246 24.794 161.959 25.1784 161.312 25.1784H153.979C152.613 25.1784 151.607 24.9862 150.888 24.6017C149.81 24.025 149.306 23.0639 149.306 21.526V16.7203C149.306 14.3174 150.744 13.0679 153.548 13.0679H161.456C161.959 13.0679 162.175 13.4523 162.175 14.029V14.3174C162.175 14.9902 161.959 15.2785 161.456 15.2785H153.692C152.973 15.2785 152.469 15.3746 152.182 15.4708C151.607 15.663 151.319 16.0475 151.319 16.6241V21.4299C151.319 22.3911 152.182 22.9678 154.051 22.9678H161.528C162.031 22.9678 162.246 23.2561 162.246 23.9289V24.2173Z" fill="#2D3241"/>
<path d="M174.036 14.029V14.3174C174.036 14.9902 173.749 15.2785 173.246 15.2785H169.939V24.2173C169.939 24.794 169.723 25.1784 169.22 25.1784H168.717C168.213 25.1784 167.926 24.794 167.926 24.2173V15.2785H164.619C164.116 15.2785 163.9 14.9902 163.9 14.3174V14.029C163.9 13.3562 164.116 13.0679 164.619 13.0679H173.246C173.749 13.0679 174.036 13.3562 174.036 14.029Z" fill="#2D3241"/>
<path d="M188.27 19.3154C188.27 20.0843 188.127 20.4688 187.767 20.4688H177.846C177.846 22.1027 178.709 22.9678 180.434 22.9678H181.872C182.375 22.9678 182.663 23.2561 182.663 23.9289V24.2173C182.663 24.794 182.375 25.1784 181.872 25.1784H180.65C179.356 25.1784 178.35 24.9862 177.487 24.5056C176.337 23.8328 175.761 22.7755 175.761 21.3338V16.9125C175.761 15.4708 176.337 14.5096 177.487 13.8368C178.35 13.2601 179.356 13.0679 180.578 13.0679H184.244C185.251 13.0679 186.114 13.2601 186.832 13.7407C187.839 14.3174 188.27 15.2785 188.27 16.4319V19.3154ZM186.329 18.162V16.6241C186.329 16.1436 185.97 15.8552 185.179 15.5669C184.676 15.3746 184.173 15.3746 183.669 15.3746H180.794C178.781 15.3746 177.774 15.7591 177.774 16.7203V18.162H186.329Z" fill="#2D3241"/>
<path d="M198.335 22.0066L203.511 13.9329C203.87 13.3562 204.302 13.0679 204.805 13.0679H205.021C205.38 13.0679 205.596 13.2601 205.811 13.5484C205.955 13.8368 206.027 14.2213 206.027 14.7018V24.2173C206.027 24.794 205.811 25.1784 205.308 25.1784H204.805C204.302 25.1784 204.086 24.794 204.086 24.2173V17.297L199.485 24.3134C199.126 24.8901 198.694 25.1784 198.335 25.1784C197.975 25.1784 197.544 24.8901 197.185 24.3134L192.584 17.297V24.2173C192.584 24.794 192.368 25.1784 191.865 25.1784H191.362C190.858 25.1784 190.643 24.794 190.643 24.2173V14.4135C190.643 14.1251 190.715 13.7407 190.93 13.4523C191.146 13.2601 191.362 13.0679 191.649 13.0679H191.865C192.368 13.0679 192.799 13.3562 193.159 13.9329L198.335 22.0066Z" fill="#2D3241"/>
<path d="M210.484 17.1047H217.026C218.104 17.1047 219.039 17.3931 219.686 17.8736C220.548 18.5465 220.98 19.5076 220.98 20.8532V21.6221C220.98 24.025 219.398 25.1784 216.307 25.1784H212.712C209.909 25.1784 208.471 23.9289 208.471 21.6221V14.029C208.471 13.3562 208.758 13.0679 209.19 13.0679H209.765C210.268 13.0679 210.484 13.3562 210.484 14.029V17.1047ZM216.666 19.3154H210.484V21.526C210.484 22.4872 211.275 22.9678 212.856 22.9678H216.307C217.098 22.9678 217.673 22.8717 217.96 22.7755C218.607 22.6794 218.967 22.1988 218.967 21.6221V20.8532C218.967 19.796 218.248 19.3154 216.666 19.3154ZM223.999 14.029C223.999 13.3562 223.783 13.0679 223.28 13.0679H222.777C222.274 13.0679 222.058 13.3562 222.058 14.029V24.2173C222.058 24.794 222.274 25.1784 222.777 25.1784H223.28C223.783 25.1784 223.999 24.794 223.999 24.2173V14.029Z" fill="#2D3241"/>
<path fill-rule="evenodd" clip-rule="evenodd" d="M9.86563 14.6168C10.4024 14.7406 11.1043 15.071 11.5998 15.36L12.7972 16.2271C12.8385 16.2684 12.8798 16.2684 12.9211 16.3097L13.0863 16.4748L13.2101 16.5987C13.2927 16.6813 13.3753 16.7226 13.4166 16.8052C13.6643 17.1355 13.9121 17.3419 14.1598 17.7548C14.325 18.0026 14.4901 18.2503 14.614 18.4981L14.7792 18.7871C14.7792 18.8284 14.7792 18.8697 14.8205 18.911L15.0269 19.3652C15.1921 19.7781 15.3572 20.3561 15.3985 20.8103C15.5637 21.7187 15.5637 22.7923 15.3985 23.6594C15.316 24.1548 15.1921 24.6503 15.0269 25.1045L14.8205 25.5587C14.8205 25.5587 14.7792 25.6 14.7792 25.6413C14.7379 25.7239 14.6966 25.7652 14.6553 25.889L14.4076 26.3432C14.3663 26.3845 14.3663 26.4258 14.325 26.4671L14.0772 26.7974C14.036 26.88 13.9947 26.9626 13.9534 27.0039C13.7882 27.2516 13.2927 27.8297 13.0863 27.9948C12.7147 28.2839 12.3843 28.5729 12.0127 28.8206C11.9714 28.8619 11.9714 28.8619 11.9301 28.9032C11.6824 29.0684 11.4347 29.1923 11.1869 29.3161L10.8153 29.4813C10.8979 29.6052 11.476 30.0181 11.5998 30.1006L12.0953 30.431C12.6734 30.8026 13.2927 31.1329 13.9534 31.3394C14.0772 31.3806 14.2011 31.4219 14.3663 31.5045C14.6553 31.5871 14.9031 31.6697 15.2334 31.711C16.4308 32 16.9263 32 18.1237 32C18.5366 32 18.8669 31.9174 19.2385 31.8761L19.6101 31.8348C19.6514 31.7936 19.6927 31.7936 19.7753 31.7936L20.2708 31.6697C20.6011 31.5871 20.8901 31.5045 21.2205 31.4219L22.0876 31.0503C22.6243 30.8439 23.0785 30.5135 23.5327 30.2245C24.1934 29.8116 24.7714 29.2748 25.3082 28.7381C25.3495 28.6555 25.3908 28.6142 25.4321 28.5729C25.5147 28.4903 25.556 28.4903 25.5972 28.4077C26.1753 27.6645 26.6708 27.0039 27.0424 26.1368L27.4966 25.0632C27.7031 24.4852 27.8269 23.9071 27.9095 23.2877C28.0747 22.0903 27.9921 20.6865 27.6205 19.5303C27.4966 18.9935 27.3314 18.4568 27.0424 17.9613C27.1663 17.9613 27.0837 17.9613 27.125 17.92C27.0424 17.7961 27.0011 17.631 26.9185 17.5071C26.8772 17.4658 26.8772 17.4245 26.836 17.3832L25.9276 15.6903C25.9276 15.6077 25.8863 15.6077 25.8863 15.5665L25.3495 14.5755C25.3082 14.5342 25.3082 14.4929 25.2669 14.4516L25.0605 13.9974C24.854 13.6258 24.6476 13.2542 24.4411 12.8826C24.276 12.6348 24.1521 12.3458 23.9869 12.0568C23.9869 12.0155 23.9456 11.9742 23.9456 11.8916L22.5005 9.24903C22.2527 8.79484 22.005 8.34065 21.7572 7.84516C21.716 7.76258 21.6747 7.68 21.5921 7.55613L20.8489 6.19355C20.8076 6.06968 20.7663 5.9871 20.725 5.90452L19.734 4.08774C19.6927 4.00516 19.6927 4.00516 19.6514 3.92258C19.2385 3.09677 18.7431 2.27097 18.3301 1.40387C18.2889 1.36258 18.2889 1.32129 18.2476 1.28C18.2063 1.23871 18.2063 1.19742 18.165 1.11484C18.1237 1.03226 18.0824 0.949677 17.9998 0.867097C17.9585 0.701936 17.5869 0.123871 17.5456 0C17.5043 0.0412903 17.4631 0.123871 17.4218 0.206452L16.8437 1.36258C16.8024 1.44516 16.7611 1.48645 16.7198 1.56903C16.6785 1.61032 16.6785 1.65161 16.6785 1.6929L16.0179 2.93161C15.9766 3.01419 15.9353 3.09677 15.894 3.17935L14.9031 4.99613C14.8618 5.07871 14.8205 5.16129 14.7792 5.24387C14.7379 5.32645 14.7379 5.36774 14.6966 5.45032L13.7056 7.30839C13.6643 7.39097 13.6231 7.43226 13.5818 7.51484L11.3108 11.8503C11.0218 12.3871 10.7327 12.9239 10.485 13.4606C10.4024 13.5432 10.4024 13.5845 10.3611 13.7084L9.9895 14.369C9.94821 14.4516 9.90692 14.5342 9.86563 14.6168Z" fill="#DC413B"/>
<path fill-rule="evenodd" clip-rule="evenodd" d="M0 27.3774C0.247742 27.2535 1.19742 27.0471 1.48645 26.9645L1.81677 26.9232C2.18839 26.8406 2.84903 26.8406 3.22065 26.8406C3.34452 26.8406 3.4271 26.8819 3.50968 26.9232L4.33548 27.171C4.95484 27.4187 6.23484 27.8729 6.85419 27.9142C6.97807 27.9142 7.10194 27.9142 7.18452 27.9555C7.76258 27.9968 8.79484 27.9968 9.33161 27.7903C9.57936 27.7077 9.78581 27.6252 10.0335 27.46L10.4052 27.2123C10.4465 27.171 10.4877 27.1297 10.529 27.0884C11.0245 26.6755 11.6852 25.7671 11.9742 25.1477C12.0155 25.1064 12.0155 25.0652 12.0155 24.9826L11.5613 25.1064C11.1897 25.2303 10.8181 25.3129 10.4877 25.3542C10.0335 25.4368 9.08387 25.3955 8.62968 25.3955C8.42323 25.3955 7.96903 25.2716 7.76258 25.2303L6.64774 24.9C6.11097 24.6935 5.65677 24.611 5.07871 24.5284C4.66581 24.4458 3.84 24.4458 3.38581 24.4458C2.84903 24.4458 2.35355 24.6935 1.89935 24.9826C1.89935 25.0239 1.85806 25.0239 1.85806 25.0239C1.77548 25.0652 1.77548 25.1064 1.73419 25.1064C1.23871 25.5193 0.867097 25.9735 0.495484 26.469C0.495484 26.5103 0.454194 26.5516 0.412903 26.5929C0.330323 26.7581 0.0412903 27.2535 0 27.3774Z" fill="#DC413B"/>
<path fill-rule="evenodd" clip-rule="evenodd" d="M2.51871 23.3274H3.26194C3.34452 23.3274 3.4271 23.3687 3.55097 23.4099C3.92258 23.4512 4.66581 23.7816 5.12 23.9467L5.90452 24.1945C6.06968 24.2357 6.27613 24.277 6.48258 24.3183C7.2671 24.4422 7.39097 24.4422 8.25807 24.4422C8.79484 24.4422 9.29032 24.3183 9.66194 24.1532C9.95097 23.988 10.0335 23.9467 10.3226 23.7403L10.6529 23.4512C10.7355 23.4099 10.7768 23.3274 10.8594 23.2448L11.3961 22.5428C11.6026 22.2538 11.7265 22.0474 11.8916 21.7583C11.9329 21.6757 12.0155 21.5519 12.0155 21.4693L11.6852 21.5519C11.3135 21.6757 10.8594 21.7996 10.4465 21.8409C10.2813 21.8409 10.1161 21.8822 9.86839 21.8822H8.62968C8.34065 21.8822 7.72129 21.717 7.43226 21.6345C6.93677 21.4693 6.60645 21.3454 6.06968 21.1803C5.9871 21.1803 5.9871 21.1803 5.90452 21.1803C5.86323 21.139 5.82194 21.139 5.78065 21.139L5.12 21.0151C4.7071 20.9325 3.34452 20.8499 2.93161 20.9738C2.76645 21.0151 2.64258 21.0564 2.51871 21.139C1.94065 21.428 1.40387 21.7996 0.990968 22.2951C0.495484 22.9557 0.454194 23.0383 0.0825806 23.7403C0.0412903 23.7403 0 23.8228 0 23.8228C0 23.8641 0 23.8228 0 23.8641C0.0412903 23.9054 0 23.8641 0.0412903 23.8641L0.743226 23.6577C1.19742 23.4925 2.06452 23.3274 2.51871 23.3274Z" fill="#DC413B"/>
<path fill-rule="evenodd" clip-rule="evenodd" d="M7.76358 20.9345C8.30035 20.9345 8.83713 20.9345 9.33261 20.7693C9.8281 20.5629 10.53 20.15 10.8604 19.7371C10.9842 19.5719 11.1081 19.448 11.232 19.2829L11.7275 18.4984C11.81 18.4158 11.8513 18.3332 11.8926 18.2506C11.9339 18.168 12.0165 18.0442 12.0165 17.9616L10.53 18.2919C9.8281 18.4158 8.87842 18.4158 8.17648 18.2919C8.13519 18.2919 8.05261 18.2919 8.01132 18.2919C7.80487 18.2506 7.59842 18.168 7.39197 18.0854L6.48358 17.7964C6.11197 17.6725 5.82293 17.6313 5.41003 17.5487C4.7081 17.4248 4.13003 17.4248 3.4281 17.4248C2.89132 17.4248 2.51971 17.59 2.10681 17.8377C2.06552 17.879 2.02422 17.879 1.98293 17.9203C1.85906 18.0029 1.77648 18.0442 1.6939 18.1267L1.15713 18.6222C1.07455 18.7048 1.03326 18.7874 0.950677 18.87L0.744225 19.159C0.702935 19.2003 0.661645 19.2416 0.620354 19.2829L0.08358 20.1913C-0.122872 20.5216 0.12487 20.2738 1.15713 20.0261L2.02422 19.8609C2.31326 19.8609 3.09777 19.7784 3.38681 19.8609C3.46939 19.8609 3.51068 19.8609 3.59326 19.9022C4.08874 19.9848 4.08874 20.0261 4.54293 20.1913C4.79068 20.3151 4.99713 20.3977 5.24487 20.4803L6.85519 20.8519C6.89648 20.8519 6.97906 20.8932 7.02035 20.8932C7.14422 20.8932 7.18551 20.8932 7.2681 20.8932C7.43326 20.9345 7.59842 20.9345 7.76358 20.9345Z" fill="#DC413B"/>
</svg>
