<svg width="224" height="33" viewBox="0 0 224 33" fill="none" xmlns="http://www.w3.org/2000/svg">
<path d="M55.2026 11.0659C55.2026 11.7387 54.987 12.1232 54.4837 12.1232H49.8109V24.2337C49.8109 24.8104 49.5952 25.1949 49.092 25.1949H48.445C48.0136 25.1949 47.7261 24.8104 47.7261 24.2337V12.1232H43.1251C42.6219 12.1232 42.4062 11.7387 42.4062 11.0659V10.7776C42.4062 10.1048 42.6219 9.81641 43.1251 9.81641H54.4837C54.987 9.81641 55.2026 10.1048 55.2026 10.7776V11.0659Z" fill="white"/>
<path d="M68.8609 19.3334C68.8609 20.1024 68.7171 20.4868 68.3576 20.4868H58.4369C58.4369 22.1208 59.2995 22.9858 61.0249 22.9858H62.5346C62.9659 22.9858 63.2535 23.2742 63.2535 23.947V24.2353C63.2535 24.812 62.9659 25.1965 62.5346 25.1965H61.2406C59.9465 25.1965 58.9401 25.0043 58.1493 24.5237C56.9272 23.8509 56.3521 22.7936 56.3521 21.3519V16.9306C56.3521 15.4888 56.9272 14.5277 58.0774 13.8549C58.9401 13.2782 59.9465 13.0859 61.1687 13.0859H64.9069C65.9134 13.0859 66.7761 13.2782 67.495 13.7587C68.4295 14.3354 68.8609 15.2966 68.8609 16.45V19.3334ZM66.9917 18.1801V16.6422C66.9917 16.1616 66.5604 15.8733 65.8415 15.5849C65.2664 15.3927 64.7631 15.3927 64.2599 15.3927H61.3843C59.3714 15.3927 58.365 15.7772 58.365 16.7383V18.1801H66.9917Z" fill="white"/>
<path d="M83.7421 21.3519C83.7421 23.8509 82.3043 25.1004 79.4287 25.1004H73.2462V27.5994C73.2462 28.1761 72.9586 28.5605 72.5273 28.5605H71.9522C71.4489 28.5605 71.2333 28.1761 71.2333 27.5994V16.6422C71.2333 15.2005 71.7365 14.2393 72.8149 13.6626C73.4619 13.2782 74.4683 13.0859 75.7623 13.0859H78.9255C82.1605 13.0859 83.7421 14.2393 83.7421 16.6422V21.3519ZM81.7292 21.3519V16.6422C81.7292 16.0655 81.3697 15.6811 80.6508 15.4888C80.2914 15.3927 79.7882 15.2966 78.9974 15.2966H75.9061C74.1089 15.2966 73.2462 15.7772 73.2462 16.7383V22.8897H79.4287C80.9384 22.8897 81.7292 22.4091 81.7292 21.3519Z" fill="white"/>
<path d="M93.8786 22.0247L99.0547 13.951C99.4141 13.3743 99.8455 13.0859 100.421 13.0859H100.636C100.924 13.0859 101.139 13.2782 101.355 13.5665C101.571 13.8549 101.643 14.2393 101.643 14.7199V24.2353C101.643 24.812 101.355 25.1965 100.852 25.1965H100.421C99.9173 25.1965 99.6298 24.812 99.6298 24.2353V17.315L95.0288 24.3314C94.6694 24.9081 94.3099 25.1965 93.8786 25.1965C93.5192 25.1965 93.1597 24.9081 92.7284 24.3314L88.1993 17.315V24.2353C88.1993 24.812 87.9118 25.1965 87.4085 25.1965H86.9053C86.4021 25.1965 86.1864 24.812 86.1864 24.2353V14.4316C86.1864 14.1432 86.2583 13.7587 86.474 13.4704C86.6896 13.2782 86.9772 13.0859 87.1929 13.0859H87.4085C87.9118 13.0859 88.415 13.3743 88.7025 13.951L93.8786 22.0247Z" fill="white"/>
<path d="M116.453 21.448C116.453 22.7936 115.877 23.8509 114.799 24.5237C114.08 25.0043 113.146 25.1965 111.995 25.1965H108.688C106.532 25.1965 105.166 24.5237 104.447 23.0819C104.231 22.6014 104.088 22.0247 104.088 21.448V16.9306C104.088 15.9694 104.447 15.1044 105.094 14.4316C105.957 13.5665 107.107 13.0859 108.688 13.0859H111.995C114.943 13.0859 116.453 14.3354 116.453 16.9306V21.448ZM114.368 21.448V16.7383C114.368 15.7772 113.577 15.2966 111.924 15.2966H108.688C108.113 15.2966 107.61 15.3927 107.107 15.5849C106.388 15.8733 106.029 16.3539 106.029 16.9306V21.448C106.029 22.0247 106.388 22.4091 107.107 22.6975C107.61 22.8897 108.113 22.9858 108.688 22.9858H111.924C112.499 22.9858 112.93 22.8897 113.433 22.6975C114.08 22.4091 114.368 22.0247 114.368 21.448Z" fill="white"/>
<path d="M131.693 24.2353C131.693 24.812 131.334 25.1965 130.759 25.1965H123.354C121.988 25.1965 120.982 25.0043 120.335 24.6198C119.256 24.0431 118.681 23.0819 118.681 21.5441V16.7383C118.681 14.3354 120.119 13.0859 122.995 13.0859H130.831C131.334 13.0859 131.621 13.4704 131.621 14.0471V14.3354C131.621 15.0082 131.334 15.2966 130.831 15.2966H123.067C122.42 15.2966 121.916 15.3927 121.629 15.4888C120.982 15.6811 120.694 16.0655 120.694 16.6422V21.448C120.694 22.4091 121.629 22.9858 123.426 22.9858H130.903C131.406 22.9858 131.693 23.2742 131.693 23.947V24.2353Z" fill="white"/>
<path d="M134.137 24.3314V14.0471C134.137 13.4704 134.425 13.0859 134.928 13.0859H135.431C135.935 13.0859 136.15 13.4704 136.15 14.0471V21.8324L144.921 13.2782C144.993 13.1821 145.137 13.0859 145.352 13.0859H145.927C146.502 13.0859 146.79 13.3743 146.79 13.951V24.2353C146.79 24.812 146.502 25.1965 145.999 25.1965H145.496C145.065 25.1965 144.777 24.812 144.777 24.2353V16.45L136.078 25.0043C135.935 25.1004 135.791 25.1965 135.647 25.1965H135C134.425 25.1965 134.137 24.9081 134.137 24.3314Z" fill="white"/>
<path d="M162.246 24.2353C162.246 24.812 161.959 25.1965 161.312 25.1965H153.979C152.613 25.1965 151.607 25.0043 150.888 24.6198C149.81 24.0431 149.306 23.0819 149.306 21.5441V16.7383C149.306 14.3354 150.744 13.0859 153.548 13.0859H161.456C161.959 13.0859 162.175 13.4704 162.175 14.0471V14.3354C162.175 15.0082 161.959 15.2966 161.456 15.2966H153.692C152.973 15.2966 152.469 15.3927 152.182 15.4888C151.607 15.6811 151.319 16.0655 151.319 16.6422V21.448C151.319 22.4091 152.182 22.9858 154.051 22.9858H161.528C162.031 22.9858 162.246 23.2742 162.246 23.947V24.2353Z" fill="white"/>
<path d="M174.036 14.0471V14.3354C174.036 15.0082 173.749 15.2966 173.246 15.2966H169.939V24.2353C169.939 24.812 169.723 25.1965 169.22 25.1965H168.717C168.213 25.1965 167.926 24.812 167.926 24.2353V15.2966H164.619C164.116 15.2966 163.9 15.0082 163.9 14.3354V14.0471C163.9 13.3743 164.116 13.0859 164.619 13.0859H173.246C173.749 13.0859 174.036 13.3743 174.036 14.0471Z" fill="white"/>
<path d="M188.27 19.3334C188.27 20.1024 188.127 20.4868 187.767 20.4868H177.846C177.846 22.1208 178.709 22.9858 180.434 22.9858H181.872C182.375 22.9858 182.663 23.2742 182.663 23.947V24.2353C182.663 24.812 182.375 25.1965 181.872 25.1965H180.65C179.356 25.1965 178.35 25.0043 177.487 24.5237C176.337 23.8509 175.761 22.7936 175.761 21.3519V16.9306C175.761 15.4888 176.337 14.5277 177.487 13.8549C178.35 13.2782 179.356 13.0859 180.578 13.0859H184.244C185.251 13.0859 186.114 13.2782 186.832 13.7587C187.839 14.3354 188.27 15.2966 188.27 16.45V19.3334ZM186.329 18.1801V16.6422C186.329 16.1616 185.97 15.8733 185.179 15.5849C184.676 15.3927 184.173 15.3927 183.669 15.3927H180.794C178.781 15.3927 177.774 15.7772 177.774 16.7383V18.1801H186.329Z" fill="white"/>
<path d="M198.335 22.0247L203.511 13.951C203.87 13.3743 204.302 13.0859 204.805 13.0859H205.021C205.38 13.0859 205.596 13.2782 205.811 13.5665C205.955 13.8549 206.027 14.2393 206.027 14.7199V24.2353C206.027 24.812 205.811 25.1965 205.308 25.1965H204.805C204.302 25.1965 204.086 24.812 204.086 24.2353V17.315L199.485 24.3314C199.126 24.9081 198.694 25.1965 198.335 25.1965C197.975 25.1965 197.544 24.9081 197.185 24.3314L192.584 17.315V24.2353C192.584 24.812 192.368 25.1965 191.865 25.1965H191.362C190.858 25.1965 190.643 24.812 190.643 24.2353V14.4316C190.643 14.1432 190.715 13.7587 190.93 13.4704C191.146 13.2782 191.362 13.0859 191.649 13.0859H191.865C192.368 13.0859 192.799 13.3743 193.159 13.951L198.335 22.0247Z" fill="white"/>
<path d="M210.484 17.1228H217.026C218.104 17.1228 219.039 17.4111 219.686 17.8917C220.548 18.5645 220.98 19.5257 220.98 20.8713V21.6402C220.98 24.0431 219.398 25.1965 216.307 25.1965H212.712C209.909 25.1965 208.471 23.947 208.471 21.6402V14.0471C208.471 13.3743 208.758 13.0859 209.19 13.0859H209.765C210.268 13.0859 210.484 13.3743 210.484 14.0471V17.1228ZM216.666 19.3334H210.484V21.5441C210.484 22.5053 211.275 22.9858 212.856 22.9858H216.307C217.098 22.9858 217.673 22.8897 217.96 22.7936C218.607 22.6975 218.967 22.2169 218.967 21.6402V20.8713C218.967 19.814 218.248 19.3334 216.666 19.3334ZM223.999 14.0471C223.999 13.3743 223.783 13.0859 223.28 13.0859H222.777C222.274 13.0859 222.058 13.3743 222.058 14.0471V24.2353C222.058 24.812 222.274 25.1965 222.777 25.1965H223.28C223.783 25.1965 223.999 24.812 223.999 24.2353V14.0471Z" fill="white"/>
<path fill-rule="evenodd" clip-rule="evenodd" d="M9.8656 14.6344C10.4024 14.7582 11.1043 15.0885 11.5998 15.3776L12.7972 16.2447C12.8385 16.286 12.8798 16.286 12.9211 16.3273L13.0862 16.4924L13.2101 16.6163C13.2927 16.6989 13.3753 16.7402 13.4166 16.8227C13.6643 17.1531 13.9121 17.3595 14.1598 17.7724C14.325 18.0202 14.4901 18.2679 14.614 18.5156L14.7791 18.8047C14.7791 18.846 14.7791 18.8873 14.8204 18.9285L15.0269 19.3827C15.1921 19.7956 15.3572 20.3737 15.3985 20.8279C15.5637 21.7363 15.5637 22.8098 15.3985 23.6769C15.3159 24.1724 15.1921 24.6679 15.0269 25.1221L14.8204 25.5763C14.8204 25.5763 14.7791 25.6176 14.7791 25.6589C14.7379 25.7414 14.6966 25.7827 14.6553 25.9066L14.4075 26.3608C14.3662 26.4021 14.3662 26.4434 14.325 26.4847L14.0772 26.815C14.0359 26.8976 13.9946 26.9802 13.9533 27.0215C13.7882 27.2692 13.2927 27.8473 13.0862 28.0124C12.7146 28.3015 12.3843 28.5905 12.0127 28.8382C11.9714 28.8795 11.9714 28.8795 11.9301 28.9208C11.6824 29.086 11.4346 29.2098 11.1869 29.3337L10.8153 29.4989C10.8979 29.6227 11.4759 30.0356 11.5998 30.1182L12.0953 30.4485C12.6733 30.8202 13.2927 31.1505 13.9533 31.3569C14.0772 31.3982 14.2011 31.4395 14.3662 31.5221C14.6553 31.6047 14.903 31.6873 15.2333 31.7285C16.4308 32.0176 16.9262 32.0176 18.1237 32.0176C18.5366 32.0176 18.8669 31.935 19.2385 31.8937L19.6101 31.8524C19.6514 31.8111 19.6927 31.8111 19.7753 31.8111L20.2708 31.6873C20.6011 31.6047 20.8901 31.5221 21.2204 31.4395L22.0875 31.0679C22.6243 30.8615 23.0785 30.5311 23.5327 30.2421C24.1933 29.8292 24.7714 29.2924 25.3082 28.7556C25.3495 28.6731 25.3908 28.6318 25.4321 28.5905C25.5146 28.5079 25.5559 28.5079 25.5972 28.4253C26.1753 27.6821 26.6708 27.0215 27.0424 26.1544L27.4966 25.0808C27.703 24.5027 27.8269 23.9247 27.9095 23.3053C28.0746 22.1079 27.9921 20.704 27.6204 19.5479C27.4966 19.0111 27.3314 18.4744 27.0424 17.9789C27.1662 17.9789 27.0837 17.9789 27.125 17.9376C27.0424 17.8137 27.0011 17.6485 26.9185 17.5247C26.8772 17.4834 26.8772 17.4421 26.8359 17.4008L25.9275 15.7079C25.9275 15.6253 25.8862 15.6253 25.8862 15.584L25.3495 14.5931C25.3082 14.5518 25.3082 14.5105 25.2669 14.4692L25.0604 14.015C24.854 13.6434 24.6475 13.2718 24.4411 12.9002C24.2759 12.6524 24.1521 12.3634 23.9869 12.0744C23.9869 12.0331 23.9456 11.9918 23.9456 11.9092L22.5004 9.26661C22.2527 8.81242 22.005 8.35822 21.7572 7.86274C21.7159 7.78016 21.6746 7.69758 21.5921 7.57371L20.8488 6.21113C20.8075 6.08726 20.7662 6.00467 20.725 5.92209L19.734 4.10532C19.6927 4.02274 19.6927 4.02274 19.6514 3.94016C19.2385 3.11435 18.743 2.28855 18.3301 1.42145C18.2888 1.38016 18.2888 1.33887 18.2475 1.29758C18.2062 1.25629 18.2062 1.215 18.165 1.13242C18.1237 1.04984 18.0824 0.967256 17.9998 0.884675C17.9585 0.719514 17.5869 0.141449 17.5456 0.0175781C17.5043 0.0588684 17.463 0.141449 17.4217 0.22403L16.8437 1.38016C16.8024 1.46274 16.7611 1.50403 16.7198 1.58661C16.6785 1.6279 16.6785 1.66919 16.6785 1.71048L16.0179 2.94919C15.9766 3.03177 15.9353 3.11435 15.894 3.19693L14.903 5.01371C14.8617 5.09629 14.8204 5.17887 14.7791 5.26145C14.7379 5.34403 14.7379 5.38532 14.6966 5.4679L13.7056 7.32597C13.6643 7.40855 13.623 7.44984 13.5817 7.53242L11.3108 11.8679C11.0217 12.4047 10.7327 12.9414 10.485 13.4782C10.4024 13.5608 10.4024 13.6021 10.3611 13.726L9.98947 14.3866C9.94818 14.4692 9.90689 14.5518 9.8656 14.6344Z" fill="#DC413B"/>
<path fill-rule="evenodd" clip-rule="evenodd" d="M0 27.3945C0.247742 27.2706 1.19742 27.0642 1.48645 26.9816L1.81677 26.9403C2.18839 26.8577 2.84903 26.8577 3.22065 26.8577C3.34452 26.8577 3.4271 26.899 3.50968 26.9403L4.33548 27.1881C4.95484 27.4358 6.23484 27.89 6.85419 27.9313C6.97807 27.9313 7.10194 27.9313 7.18452 27.9726C7.76258 28.0139 8.79484 28.0139 9.33161 27.8074C9.57936 27.7248 9.78581 27.6422 10.0335 27.4771L10.4052 27.2293C10.4465 27.1881 10.4877 27.1468 10.529 27.1055C11.0245 26.6926 11.6852 25.7842 11.9742 25.1648C12.0155 25.1235 12.0155 25.0822 12.0155 24.9997L11.5613 25.1235C11.1897 25.2474 10.8181 25.33 10.4877 25.3713C10.0335 25.4539 9.08387 25.4126 8.62968 25.4126C8.42323 25.4126 7.96903 25.2887 7.76258 25.2474L6.64774 24.9171C6.11097 24.7106 5.65677 24.6281 5.07871 24.5455C4.66581 24.4629 3.84 24.4629 3.38581 24.4629C2.84903 24.4629 2.35355 24.7106 1.89935 24.9997C1.89935 25.041 1.85806 25.041 1.85806 25.041C1.77548 25.0822 1.77548 25.1235 1.73419 25.1235C1.23871 25.5364 0.867097 25.9906 0.495484 26.4861C0.495484 26.5274 0.454194 26.5687 0.412903 26.61C0.330323 26.7751 0.0412903 27.2706 0 27.3945Z" fill="#DC413B"/>
<path fill-rule="evenodd" clip-rule="evenodd" d="M2.51871 23.3444H3.26194C3.34452 23.3444 3.4271 23.3857 3.55097 23.427C3.92258 23.4683 4.66581 23.7986 5.12 23.9638L5.90452 24.2115C6.06968 24.2528 6.27613 24.2941 6.48258 24.3354C7.2671 24.4593 7.39097 24.4593 8.25807 24.4593C8.79484 24.4593 9.29032 24.3354 9.66194 24.1703C9.95097 24.0051 10.0335 23.9638 10.3226 23.7574L10.6529 23.4683C10.7355 23.427 10.7768 23.3444 10.8594 23.2619L11.3961 22.5599C11.6026 22.2709 11.7265 22.0644 11.8916 21.7754C11.9329 21.6928 12.0155 21.569 12.0155 21.4864L11.6852 21.569C11.3135 21.6928 10.8594 21.8167 10.4465 21.858C10.2813 21.858 10.1161 21.8993 9.86839 21.8993H8.62968C8.34065 21.8993 7.72129 21.7341 7.43226 21.6515C6.93677 21.4864 6.60645 21.3625 6.06968 21.1974C5.9871 21.1974 5.9871 21.1974 5.90452 21.1974C5.86323 21.1561 5.82194 21.1561 5.78065 21.1561L5.12 21.0322C4.7071 20.9496 3.34452 20.867 2.93161 20.9909C2.76645 21.0322 2.64258 21.0735 2.51871 21.1561C1.94065 21.4451 1.40387 21.8167 0.990968 22.3122C0.495484 22.9728 0.454194 23.0554 0.0825806 23.7574C0.0412903 23.7574 0 23.8399 0 23.8399C0 23.8812 0 23.8399 0 23.8812C0.0412903 23.9225 0 23.8812 0.0412903 23.8812L0.743226 23.6748C1.19742 23.5096 2.06452 23.3444 2.51871 23.3444Z" fill="#DC413B"/>
<path fill-rule="evenodd" clip-rule="evenodd" d="M7.76358 20.953C8.30035 20.953 8.83713 20.953 9.33261 20.7879C9.8281 20.5814 10.53 20.1685 10.8604 19.7556C10.9842 19.5905 11.1081 19.4666 11.232 19.3014L11.7275 18.5169C11.81 18.4343 11.8513 18.3517 11.8926 18.2692C11.9339 18.1866 12.0165 18.0627 12.0165 17.9801L10.53 18.3105C9.8281 18.4343 8.87842 18.4343 8.17648 18.3105C8.13519 18.3105 8.05261 18.3105 8.01132 18.3105C7.80487 18.2692 7.59842 18.1866 7.39197 18.104L6.48358 17.815C6.11197 17.6911 5.82293 17.6498 5.41003 17.5672C4.7081 17.4434 4.13003 17.4434 3.4281 17.4434C2.89132 17.4434 2.51971 17.6085 2.10681 17.8563C2.06552 17.8976 2.02422 17.8976 1.98293 17.9388C1.85906 18.0214 1.77648 18.0627 1.6939 18.1453L1.15713 18.6408C1.07455 18.7234 1.03326 18.8059 0.950677 18.8885L0.744225 19.1776C0.702935 19.2188 0.661645 19.2601 0.620354 19.3014L0.08358 20.2098C-0.122872 20.5401 0.12487 20.2924 1.15713 20.0446L2.02422 19.8795C2.31326 19.8795 3.09777 19.7969 3.38681 19.8795C3.46939 19.8795 3.51068 19.8795 3.59326 19.9208C4.08874 20.0034 4.08874 20.0446 4.54293 20.2098C4.79068 20.3337 4.99713 20.4163 5.24487 20.4988L6.85519 20.8705C6.89648 20.8705 6.97906 20.9117 7.02035 20.9117C7.14422 20.9117 7.18551 20.9117 7.2681 20.9117C7.43326 20.953 7.59842 20.953 7.76358 20.953Z" fill="#DC413B"/>
</svg>
