<svg width="20" height="20" viewBox="0 0 20 20" fill="none" xmlns="http://www.w3.org/2000/svg">
<g clip-path="url(#clip0_38_721)">
<path d="M11.2513 6.65009H9.15271V9.17886H11.2513C11.9485 9.17886 12.5157 8.61165 12.5157 7.91449C12.5157 7.21734 11.9485 6.65009 11.2513 6.65009Z" fill="#3179DF"/>
<path d="M17.0696 2.93063C13.1625 -0.976422 6.83828 -0.977009 2.93068 2.93063C-0.976417 6.83765 -0.977043 13.162 2.93068 17.0696C6.83773 20.9766 13.162 20.9772 17.0696 17.0696C20.9766 13.1625 20.9772 6.83824 17.0696 2.93063ZM11.2514 10.8213H9.1528V11.6816H10.8343C11.2878 11.6816 11.6555 12.0492 11.6555 12.5028C11.6555 12.9563 11.2878 13.324 10.8343 13.324H9.1528V14.1712C9.1528 14.6248 8.78514 14.9924 8.33161 14.9924C7.87807 14.9924 7.51041 14.6248 7.51041 14.1712V13.324H6.66317C6.20964 13.324 5.84198 12.9563 5.84198 12.5028C5.84198 12.0492 6.20964 11.6816 6.66317 11.6816H7.51041V10.8213H6.66317C6.20964 10.8213 5.84198 10.4536 5.84198 10.0001C5.84198 9.54654 6.20964 9.17888 6.66317 9.17888H7.51041V5.82891C7.51041 5.37537 7.87807 5.00771 8.33161 5.00771H11.2514C12.8542 5.00771 14.1582 6.31169 14.1582 7.91447C14.1582 9.51733 12.8542 10.8213 11.2514 10.8213Z" fill="#3179DF"/>
</g>
<defs>
<clipPath id="clip0_38_721">
<rect width="20" height="20" fill="white"/>
</clipPath>
</defs>
</svg>
