<svg width="16" height="16" viewBox="0 0 16 16" fill="none" xmlns="http://www.w3.org/2000/svg">
<path d="M6.63318 9.36793C5.10442 7.83917 4.75924 6.31042 4.68137 5.69792C4.65961 5.52857 4.71789 5.35873 4.83905 5.23841L6.07619 4.00182C6.25817 3.81995 6.29047 3.53651 6.15406 3.31836L4.1843 0.259744C4.03339 0.0181833 3.72353 -0.0689983 3.4688 0.0584322L0.306633 1.5477C0.100643 1.64913 -0.0205173 1.86799 0.00287056 2.0964C0.168559 3.67045 0.854786 7.53983 4.65734 11.3427C8.4599 15.1455 12.3287 15.8314 13.9036 15.9971C14.132 16.0205 14.3509 15.8994 14.4523 15.6934L15.9416 12.5312C16.0685 12.277 15.9819 11.968 15.7414 11.8168L12.6827 9.8476C12.4647 9.71105 12.1813 9.74311 11.9993 9.92492L10.7627 11.1621C10.6424 11.2832 10.4725 11.3415 10.3032 11.3197C9.69069 11.2419 8.16193 10.8967 6.63318 9.36793Z" fill="#CE3C46"/>
</svg>
