<svg width="32" height="19" viewBox="0 0 32 19" fill="none" xmlns="http://www.w3.org/2000/svg">
<path d="M30.1375 13.8213C29.4514 13.0167 28.6764 12.2983 27.9268 11.6035C27.6634 11.3593 27.3909 11.1067 27.1285 10.856C27.1284 10.8559 27.1283 10.8559 27.1283 10.8558C26.7753 10.5189 26.6025 10.2797 26.5845 10.1031C26.5667 9.92948 26.688 9.67188 26.9668 9.29112C27.3838 8.71841 27.8282 8.14474 28.2582 7.59C28.6403 7.09686 29.0354 6.58691 29.4142 6.07407L29.4992 5.95892C30.2381 4.95807 31.002 3.92315 31.4114 2.66199C31.5283 2.3004 31.6497 1.7653 31.3569 1.29556C31.0639 0.8257 30.5208 0.686442 30.138 0.62266C29.9511 0.591312 29.7737 0.58872 29.6086 0.58872L24.8158 0.58456C23.9871 0.571056 23.4123 0.955434 23.099 1.72732C22.8483 2.3438 22.5522 3.05824 22.2091 3.73597C21.5528 5.04433 20.7188 6.55128 19.5099 7.80684L19.4562 7.86279C19.3739 7.94875 19.2395 8.08934 19.1704 8.12159C19.0394 8.04105 18.8883 7.58041 18.8952 7.33909C18.8954 7.33312 18.8955 7.32721 18.8955 7.3213L18.8912 1.90149C18.8912 1.87394 18.8893 1.84639 18.8855 1.81908C18.778 1.04586 18.5685 0.270716 17.318 0.0292133C17.2779 0.0214365 17.2371 0.0175782 17.1963 0.0175782H12.2108C11.2728 0.0175782 10.7767 0.437946 10.3789 0.893702C10.2638 1.02657 9.95789 1.37936 10.1137 1.81064C10.2714 2.24704 10.7413 2.33416 10.8956 2.36273C11.4389 2.46365 11.7198 2.76417 11.8068 3.33869C11.9787 4.45499 11.9998 5.64918 11.8732 7.09499C11.8379 7.48317 11.7722 7.77821 11.6663 8.02357C11.637 8.09151 11.6112 8.13359 11.5932 8.15836C11.5645 8.14703 11.5199 8.12533 11.458 8.08391C11.0762 7.82824 10.7885 7.43078 10.5103 7.04653C9.39887 5.51088 8.46404 3.81482 7.65197 1.86068C7.31755 1.05991 6.68886 0.612653 5.8829 0.601078C4.34734 0.57606 2.92717 0.576663 1.54265 0.603007C0.889638 0.6141 0.431707 0.815271 0.181367 1.20104C-0.0692819 1.58752 -0.0601036 2.08029 0.208717 2.6659C2.13038 6.84789 3.87524 9.89012 5.86614 12.5302C7.26796 14.389 8.67908 15.6792 10.307 16.5907C12.0173 17.5483 13.9463 18.0176 16.1841 18.0176C16.4385 18.0176 16.6974 18.0115 16.9598 17.9993C18.3404 17.9377 18.9021 17.4003 18.9634 16.0843C18.9978 15.3888 19.0769 14.8254 19.3513 14.3358C19.4281 14.1988 19.5147 14.1069 19.5829 14.0901C19.6555 14.0724 19.7842 14.1159 19.9273 14.2068C20.1889 14.3731 20.4142 14.5986 20.5994 14.7965C20.7871 14.9977 20.9769 15.2055 21.1605 15.4064C21.5512 15.8342 21.9553 16.2767 22.3786 16.6987C23.336 17.6538 24.4398 18.0918 25.6605 18.0001L30.0467 18.0021C30.0468 18.0021 30.0469 18.0021 30.0469 18.0021C30.0608 18.0021 30.0748 18.0017 30.0887 18.0008C30.5946 17.9678 31.032 17.6937 31.2889 17.2485C31.5982 16.7125 31.5935 16.0335 31.2761 15.4315C30.945 14.8057 30.5153 14.2671 30.1375 13.8213ZM30.1948 16.6439C30.1343 16.7488 30.0597 16.7679 30.0212 16.7724L25.636 16.7705C25.6358 16.7705 25.6357 16.7705 25.6355 16.7705C25.6182 16.7705 25.6009 16.7711 25.5837 16.7726C24.7198 16.843 23.9855 16.5458 23.2753 15.8374C22.8725 15.4358 22.4784 15.0043 22.0973 14.5871C21.9116 14.3837 21.7196 14.1734 21.5267 13.9667C21.2874 13.711 20.9917 13.4171 20.6117 13.1756C20.0427 12.8142 19.5712 12.8251 19.276 12.8979C18.9838 12.97 18.5685 13.1755 18.2497 13.7449C17.8368 14.4815 17.7457 15.2762 17.7086 16.0269C17.6872 16.486 17.6078 16.6073 17.5747 16.6381C17.5312 16.6785 17.3861 16.7495 16.9019 16.7712C14.5749 16.8783 12.6221 16.4704 10.931 15.5235C9.45986 14.6998 8.17169 13.5166 6.87717 11.8002C4.94141 9.23331 3.23818 6.26077 1.35478 2.16198C1.28652 2.0135 1.26546 1.92084 1.25936 1.87123C1.30741 1.85579 1.40128 1.83548 1.56588 1.83252C2.93634 1.80654 4.34168 1.80582 5.86337 1.83065C6.0717 1.83367 6.30892 1.89486 6.48854 2.32499C7.33701 4.36679 8.31712 6.14369 9.48505 7.75741C9.79514 8.18573 10.1811 8.71889 10.7484 9.09875C11.268 9.44696 11.6896 9.43032 11.9519 9.35509C12.2143 9.27979 12.5785 9.0706 12.8238 8.50223C12.9821 8.13588 13.0777 7.72335 13.1251 7.20212C13.2604 5.65563 13.2364 4.36986 13.0496 3.15711C12.918 2.28822 12.4596 1.66053 11.7374 1.33999C11.8657 1.27464 12.0102 1.2474 12.2109 1.2474H17.1313C17.4081 1.30816 17.4629 1.37954 17.4817 1.40396C17.5614 1.50771 17.607 1.75313 17.6349 1.94489L17.639 7.31473C17.628 7.82951 17.8836 8.97119 18.754 9.28425C18.7611 9.28684 18.7683 9.28925 18.7756 9.29154C19.568 9.54498 20.0921 8.99753 20.3735 8.7034L20.4236 8.6512C21.7478 7.27579 22.6394 5.66871 23.3361 4.28004C23.6991 3.56295 24.0066 2.8212 24.2667 2.18181C24.3968 1.86116 24.5152 1.80835 24.7976 1.8142C24.8015 1.81432 24.8053 1.81432 24.8093 1.81432L29.6082 1.81848C29.7198 1.81848 29.8363 1.81974 29.9267 1.83487C30.1553 1.87297 30.2495 1.91939 30.2806 1.93862C30.2838 1.97425 30.283 2.07674 30.2139 2.29063C29.8658 3.36304 29.1931 4.27419 28.4809 5.23887L28.3959 5.3542C28.0258 5.85529 27.6351 6.35946 27.2573 6.8471C26.8218 7.40902 26.3716 7.98999 25.9448 8.57632C25.0323 9.82235 25.1125 10.6492 26.2513 11.7363C26.5204 11.9934 26.7962 12.2491 27.0631 12.4964C27.8196 13.1977 28.5342 13.8601 29.172 14.608C29.5058 15.0019 29.8843 15.4749 30.1601 15.9963C30.304 16.2692 30.2687 16.5158 30.1948 16.6439Z" fill="white"/>
</svg>
