<svg width="75" height="70" viewBox="0 0 75 70" fill="none" xmlns="http://www.w3.org/2000/svg">
<g filter="url(#filter0_d_11_503)">
<path d="M45.9256 55.9949C49.7292 56.116 53.2727 54.0829 55.0689 50.7489L59.0478 43.3633L63.4945 36.246C65.5018 33.0331 65.5018 28.9669 63.4945 25.754L59.0478 18.6367L55.0689 11.2511C53.2727 7.91711 49.7292 5.88398 45.9256 6.00513L37.5 6.2735L29.0744 6.00513C25.2708 5.88398 21.7273 7.91711 19.9311 11.2511L15.9522 18.6368L11.5055 25.754C9.49817 28.9669 9.49817 33.0331 11.5055 36.246L15.9522 43.3633L19.9311 50.7489C21.7273 54.0829 25.2708 56.116 29.0744 55.9949L37.5 55.7265L45.9256 55.9949Z" fill="url(#paint0_linear_11_503)"/>
</g>
<defs>
<filter id="filter0_d_11_503" x="0" y="0" width="75" height="70" filterUnits="userSpaceOnUse" color-interpolation-filters="sRGB">
<feFlood flood-opacity="0" result="BackgroundImageFix"/>
<feColorMatrix in="SourceAlpha" type="matrix" values="0 0 0 0 0 0 0 0 0 0 0 0 0 0 0 0 0 0 127 0" result="hardAlpha"/>
<feOffset dy="4"/>
<feGaussianBlur stdDeviation="5"/>
<feComposite in2="hardAlpha" operator="out"/>
<feColorMatrix type="matrix" values="0 0 0 0 0 0 0 0 0 0 0 0 0 0 0 0 0 0 0.3 0"/>
<feBlend mode="normal" in2="BackgroundImageFix" result="effect1_dropShadow_11_503"/>
<feBlend mode="normal" in="SourceGraphic" in2="effect1_dropShadow_11_503" result="shape"/>
</filter>
<linearGradient id="paint0_linear_11_503" x1="40.5726" y1="11.5195" x2="40.5726" y2="52.7532" gradientUnits="userSpaceOnUse">
<stop stop-color="#FFE18F"/>
<stop offset="0.493493" stop-color="#FBCD5D"/>
<stop offset="1" stop-color="#F6C24C"/>
</linearGradient>
</defs>
</svg>
