<svg width="134" height="136" viewBox="0 0 134 136" fill="none" xmlns="http://www.w3.org/2000/svg">
<path d="M127.299 87.2195L121.831 89.994L122.301 88.6271L127.378 86.0307L123.636 84.7438L123.989 83.7187L131.751 86.3885L131.398 87.4137L127.967 86.2336L130.127 91.1106L129.646 92.5086L127.299 87.2195Z" fill="#969EAF"/>
<path d="M123.488 101.334L124.9 102.106L124.381 103.057L117.177 99.122L117.696 98.1705L119.108 98.9418C118.419 97.7041 118.413 96.4469 119.113 95.1638C119.672 94.1402 120.513 93.4576 121.649 93.1237C122.777 92.8043 123.867 92.9318 124.919 93.5064C125.971 94.0809 126.667 94.9293 127.009 96.0516C127.342 97.1882 127.222 98.2644 126.663 99.288C125.963 100.571 124.902 101.246 123.488 101.334ZM121.919 94.1699C121.073 94.4187 120.429 94.9467 119.996 95.7396C119.563 96.5326 119.467 97.3597 119.716 98.2066C119.978 99.0614 120.506 99.7052 121.298 100.138C122.091 100.571 122.918 100.667 123.764 100.418C124.625 100.177 125.269 99.6493 125.702 98.8564C126.135 98.0635 126.231 97.2363 125.968 96.3815C125.72 95.5346 125.192 94.8908 124.4 94.4579C123.607 94.025 122.78 93.929 121.919 94.1699Z" fill="#969EAF"/>
<path d="M122.566 105.878L118.327 111.32L117.498 110.674L119.284 108.381L113.639 103.98L114.305 103.124L119.95 107.525L121.737 105.232L122.566 105.878Z" fill="#969EAF"/>
<path d="M110 117.394L111.097 118.572L110.303 119.311L104.711 113.301L105.504 112.562L106.6 113.74C106.336 112.348 106.728 111.153 107.797 110.157C108.65 109.362 109.663 108.98 110.846 109.022C112.018 109.075 113.012 109.54 113.828 110.418C114.645 111.295 115.038 112.321 115.007 113.493C114.965 114.677 114.512 115.661 113.658 116.455C112.589 117.452 111.37 117.757 110 117.394ZM110.773 110.1C109.891 110.069 109.114 110.366 108.453 110.982C107.792 111.598 107.44 112.352 107.408 113.234C107.388 114.128 107.685 114.906 108.3 115.567C108.915 116.228 109.669 116.581 110.551 116.612C111.444 116.655 112.221 116.358 112.882 115.742C113.543 115.126 113.896 114.372 113.916 113.478C113.948 112.595 113.65 111.818 113.035 111.157C112.42 110.496 111.666 110.143 110.773 110.1Z" fill="#969EAF"/>
<path d="M106.175 122.456L101.252 125.669L96.7675 118.792L97.6751 118.199L101.586 124.197L104.693 122.168L102.693 119.1C101.949 117.959 101.649 117.017 101.811 116.304C101.959 115.599 102.438 115.011 103.23 114.573L103.787 115.425C102.67 115.998 102.516 116.844 103.601 118.508L106.175 122.456Z" fill="#969EAF"/>
<path d="M88.4803 123.862C88.9281 122.777 89.7032 122 90.8055 121.529C91.9077 121.058 93.0201 121.029 94.1125 121.455C95.2113 121.896 95.9884 122.671 96.4653 123.789C96.9423 124.907 96.9644 126.005 96.5166 127.089C96.0752 128.188 95.2851 128.973 94.1828 129.444C93.0806 129.915 91.9832 129.937 90.8845 129.496C89.7921 129.07 88.9999 128.301 88.5229 127.183C88.046 126.065 88.039 124.961 88.4803 123.862ZM93.6993 122.453C92.8806 122.124 92.0484 122.14 91.218 122.495C90.3875 122.85 89.8003 123.44 89.4714 124.26C89.149 125.094 89.165 125.926 89.5195 126.757C89.874 127.588 90.4638 128.175 91.2825 128.504C92.1077 128.848 92.9398 128.832 93.7703 128.477C94.6008 128.122 95.188 127.532 95.5104 126.697C95.8393 125.878 95.8233 125.046 95.4688 124.215C95.1143 123.384 94.5245 122.797 93.6993 122.453Z" fill="#969EAF"/>
<path d="M86.0879 132.261L80.9922 133.542L80.7365 132.522L84.7812 131.506L83.039 124.56L84.09 124.296L86.0879 132.261Z" fill="#969EAF"/>
<path d="M67.9224 126.552C69.1537 126.539 70.1922 126.939 71.0215 127.751C71.8509 128.58 72.2718 129.594 72.2843 130.81C72.2968 132.025 71.8969 133.048 71.0845 133.878C70.2722 134.724 69.2422 135.146 68.0109 135.159C66.3857 135.176 64.998 134.353 64.3935 133.045L65.2748 132.526C65.7282 133.507 66.7689 134.12 68.0001 134.107C68.903 134.098 69.6714 133.778 70.2887 133.131C70.9061 132.5 71.2101 131.725 71.2008 130.821C71.1915 129.918 70.8716 129.149 70.2412 128.515C69.611 127.898 68.8362 127.594 67.9332 127.603C66.702 127.616 65.707 128.251 65.1754 129.242L64.267 128.726C64.9266 127.405 66.33 126.569 67.9224 126.552Z" fill="#969EAF"/>
<path d="M48.2881 132.349L50.0079 125.397L48.7329 125.082L49.5139 121.924L50.5658 122.185L50.0372 124.321L56.7944 125.993L54.8221 133.965L53.7703 133.705L55.4901 126.753L51.0597 125.657L49.3399 132.609L48.2881 132.349Z" fill="#969EAF"/>
<path d="M39.7716 129.418C38.6622 128.923 37.9366 128.132 37.6166 127.036C37.2749 125.948 37.345 124.864 37.8201 123.799C37.8669 123.694 37.9555 123.536 38.0575 123.347L44.6391 126.284C45.12 124.682 44.3638 123.194 42.7597 122.478C41.6203 121.969 40.5382 122.098 39.7772 122.676L39.1351 121.778C40.2698 121.007 41.7487 120.875 43.2029 121.524C44.3873 122.053 45.1795 122.856 45.5863 123.919C45.993 124.982 45.9463 126.094 45.4377 127.234C44.9359 128.359 44.1612 129.129 43.092 129.551C42.0228 129.973 40.926 129.934 39.7716 129.418ZM40.1999 128.458C41.7591 129.154 43.3535 128.643 44.2108 127.244L38.6187 124.749C38.369 125.591 38.3945 126.34 38.7102 127.002C39.0259 127.665 39.5252 128.157 40.1999 128.458Z" fill="#969EAF"/>
<path d="M29.9589 119.535L27.954 122.502L27.0564 121.894L31.6547 115.09L32.5523 115.697L30.5475 118.664L34.4643 121.313L36.4691 118.346L37.3668 118.953L32.7684 125.757L31.8708 125.15L33.8757 122.184L29.9589 119.535Z" fill="#969EAF"/>
<path d="M19.3117 112.897L18.1877 114.049L17.4124 113.292L23.1469 107.414L23.9223 108.171L22.7983 109.323C24.1759 108.992 25.3874 109.326 26.4329 110.347C27.2669 111.161 27.6968 112.155 27.711 113.34C27.7135 114.513 27.2961 115.528 26.4588 116.387C25.6216 117.245 24.6168 117.687 23.4445 117.713C22.2605 117.727 21.2572 117.322 20.4231 116.507C19.3776 115.486 19.0149 114.283 19.3117 112.897ZM26.631 113.318C26.6204 112.435 26.2862 111.673 25.6401 111.042C24.994 110.411 24.224 110.095 23.3417 110.106C22.4481 110.129 21.6858 110.463 21.055 111.11C20.4242 111.756 20.1084 112.527 20.1189 113.41C20.1181 114.304 20.4523 115.066 21.0984 115.697C21.7445 116.328 22.5145 116.644 23.4082 116.621C24.2904 116.611 25.0527 116.276 25.6835 115.629C26.3143 114.983 26.6301 114.212 26.631 113.318Z" fill="#969EAF"/>
<path d="M10.5878 104.394L9.87224 103.372L16.5973 98.6604L17.2186 99.5483L11.8521 103.308L17.3195 102.986L17.3948 103.094L15.2225 108.124L20.5891 104.365L21.2105 105.253L14.4855 109.964L13.7699 108.942L15.8642 104.086L10.5878 104.394Z" fill="#969EAF"/>
<path d="M12.8953 95.8975L5.10568 94.1068L4.72025 93.2718L12.173 89.8269L12.6272 90.811L6.88863 93.4635L14.6782 95.2543L15.0636 96.0893L7.61092 99.5342L7.15667 98.5501L12.8953 95.8975Z" fill="#969EAF"/>
<path d="M3.934 71.717C3.9886 72.6352 3.29499 73.4171 2.37722 73.472C1.47584 73.5259 0.710862 72.8312 0.656259 71.913C0.602632 71.0112 1.28083 70.2467 2.18221 70.1928C3.09998 70.1379 3.88038 70.8152 3.934 71.717Z" fill="#969EAF"/>
<path d="M6.23917 49.6671L11.6302 46.746L11.1972 48.1251L6.19233 50.8576L9.96711 52.043L9.64236 53.0773L1.81086 50.618L2.13562 49.5837L5.59714 50.6707L3.30669 45.8538L3.74953 44.4434L6.23917 49.6671Z" fill="#969EAF"/>
<path d="M9.68521 35.4086L8.25316 34.6752L8.74709 33.7102L16.0535 37.4519L15.5595 38.4169L14.1275 37.6835C14.85 38.9024 14.8892 40.1589 14.2231 41.4603C13.6918 42.4984 12.87 43.2032 11.743 43.5673C10.6236 43.9167 9.5305 43.8183 8.46377 43.272C7.39704 42.7257 6.67814 41.8962 6.30709 40.7834C5.94351 39.6561 6.03471 38.5771 6.56606 37.539C7.23213 36.2376 8.27422 35.5349 9.68521 35.4086ZM11.4447 42.5287C12.2844 42.2574 12.9137 41.7124 13.3253 40.9082C13.737 40.104 13.8111 39.2746 13.5402 38.4346C13.2547 37.5872 12.71 36.9576 11.9063 36.5461C11.1026 36.1345 10.2736 36.0606 9.43398 36.3318C8.57969 36.5956 7.95031 37.1406 7.5387 37.9448C7.12709 38.749 7.05299 39.5784 7.3385 40.4258C7.6094 41.2658 8.154 41.8954 8.9577 42.307C9.76141 42.7185 10.5904 42.7924 11.4447 42.5287Z" fill="#969EAF"/>
<path d="M10.3394 31.0593L14.4138 25.4926L15.2614 26.1136L13.5444 28.4595L19.3193 32.6895L18.679 33.5643L12.9041 29.3343L11.1871 31.6802L10.3394 31.0593Z" fill="#969EAF"/>
<path d="M22.4952 19.2204L21.3648 18.0752L22.136 17.3133L27.903 23.1563L27.1319 23.9181L26.0015 22.7729C26.3061 24.1569 25.95 25.3626 24.9102 26.3899C24.0807 27.2095 23.0796 27.6214 21.8955 27.6141C20.7231 27.5952 19.7159 27.1593 18.8739 26.3062C18.0319 25.4531 17.6089 24.4401 17.6048 23.2669C17.6125 22.0823 18.0368 21.086 18.8663 20.2665C19.9062 19.2392 21.1157 18.8983 22.4952 19.2204ZM21.9373 26.5342C22.8196 26.5396 23.5878 26.2192 24.2304 25.5843C24.873 24.9495 25.203 24.1849 25.2087 23.3023C25.2028 22.4079 24.8827 21.6393 24.2484 20.9966C23.614 20.3539 22.8499 20.024 21.9676 20.0185C21.0738 20.0014 20.3055 20.3219 19.6629 20.9567C19.0204 21.5915 18.6904 22.3561 18.6962 23.2505C18.6905 24.1331 19.0107 24.9017 19.645 25.5444C20.2794 26.1871 21.0435 26.5171 21.9373 26.5342Z" fill="#969EAF"/>
<path d="M26.3718 13.8622L31.2113 10.524L35.8696 17.285L34.9774 17.9004L30.9154 12.0048L27.8603 14.1122L29.9379 17.1276C30.7112 18.2499 31.0352 19.1834 30.8915 19.9009C30.7612 20.6092 30.2968 21.2088 29.5161 21.6675L28.9384 20.8292C30.0404 20.2287 30.173 19.3792 29.0457 17.743L26.3718 13.8622Z" fill="#969EAF"/>
<path d="M43.8208 12.0638C43.4047 13.1607 42.6526 13.9606 41.5645 14.4635C40.4764 14.9665 39.3653 15.0278 38.261 14.6336C37.1499 14.2246 36.3505 13.4724 35.8412 12.369C35.3319 11.2656 35.2778 10.1689 35.6939 9.072C36.103 7.96019 36.87 7.15338 37.9581 6.65042C39.0462 6.14747 40.1424 6.09307 41.2536 6.50213C42.3579 6.89628 43.1721 7.6416 43.6814 8.74498C44.1908 9.84836 44.2299 10.9519 43.8208 12.0638ZM38.645 13.6239C39.4729 13.9287 40.3043 13.8882 41.1241 13.5093C41.9439 13.1303 42.5136 12.5232 42.8185 11.6948C43.1165 10.8515 43.0762 10.0198 42.6977 9.1997C42.3192 8.37962 41.7125 7.80973 40.8845 7.50495C40.0497 7.18525 39.2184 7.22576 38.3986 7.6047C37.5788 7.98363 37.009 8.59075 36.711 9.43407C36.4061 10.2625 36.4464 11.0942 36.825 11.9143C37.2035 12.7343 37.8102 13.3042 38.645 13.6239Z" fill="#969EAF"/>
<path d="M46.1265 3.52068L51.1875 2.10899L51.4694 3.12159L47.4523 4.24212L49.3729 11.1404L48.3291 11.4316L46.1265 3.52068Z" fill="#969EAF"/>
<path d="M64.4449 8.71373C63.2144 8.75936 62.1657 8.38733 61.3152 7.59705C60.4641 6.79035 60.0165 5.78789 59.9718 4.57325C59.9271 3.35861 60.2999 2.32573 61.09 1.4746C61.8796 0.607066 62.8981 0.158386 64.1286 0.112756C65.7528 0.0525252 67.1618 0.838538 67.8007 2.12976L66.9335 2.67145C66.4543 1.70303 65.3977 1.11763 64.1672 1.16326C63.2649 1.19672 62.5052 1.53718 61.9053 2.20045C61.3048 2.8473 61.0215 3.63032 61.0547 4.5331C61.0879 5.43587 61.428 6.19577 62.075 6.8128C62.7213 7.41342 63.5039 7.69669 64.4063 7.66323C65.6368 7.6176 66.6146 6.95675 67.1198 5.95183L68.0415 6.44362C67.4171 7.78169 66.0364 8.65471 64.4449 8.71373Z" fill="#969EAF"/>
<path d="M83.7527 2.327L82.2212 9.32302L83.5042 9.60382L82.8087 12.7809L81.7502 12.5492L82.2209 10.3991L75.421 8.91084L77.1774 0.887886L78.2358 1.11955L76.7043 8.11556L81.1627 9.09136L82.6943 2.09534L83.7527 2.327Z" fill="#969EAF"/>
<path d="M92.1381 4.8979C93.2621 5.35869 94.0117 6.12748 94.3651 7.21325C94.7401 8.29005 94.7033 9.37562 94.2611 10.4548C94.2175 10.5612 94.1338 10.7221 94.0377 10.9135L87.369 8.17991C86.9375 9.79599 87.7389 11.2607 89.3643 11.9269C90.5188 12.4002 91.5964 12.2383 92.3394 11.6375L93.0087 12.5154C91.8981 13.3206 90.424 13.4975 88.9505 12.8935C87.7505 12.4015 86.934 11.623 86.4948 10.5732C86.0557 9.52328 86.0683 8.41006 86.5416 7.25491C87.0087 6.11497 87.7594 5.32205 88.8151 4.86721C89.8709 4.41236 90.9684 4.41844 92.1381 4.8979ZM91.7395 5.87066C90.1596 5.22307 88.5817 5.78338 87.7676 7.20716L93.4337 9.52977C93.6574 8.68062 93.609 7.93291 93.2731 7.28042C92.9372 6.62793 92.423 6.15087 91.7395 5.87066Z" fill="#969EAF"/>
<path d="M102.388 14.5102L104.302 11.4843L105.218 12.064L100.827 19.004L99.9112 18.4244L101.826 15.3985L97.8308 12.8691L95.9162 15.8949L95.0007 15.3153L99.3919 8.37526L100.307 8.95492L98.3929 11.9808L102.388 14.5102Z" fill="#969EAF"/>
<path d="M113.448 20.9983L114.542 19.8176L115.336 20.5543L109.756 26.5786L108.961 25.8418L110.055 24.6611C108.686 25.0271 107.466 24.725 106.395 23.7314C105.54 22.9388 105.085 21.9566 105.04 20.7728C105.007 19.6001 105.398 18.574 106.213 17.6945C107.028 16.815 108.021 16.347 109.192 16.2907C110.375 16.2456 111.389 16.6253 112.243 17.4179C113.315 18.4115 113.709 19.6052 113.448 20.9983ZM106.12 20.7665C106.153 21.6485 106.507 22.4021 107.169 23.0161C107.832 23.6301 108.61 23.9259 109.491 23.8922C110.384 23.8465 111.137 23.4924 111.751 22.8297C112.365 22.167 112.661 21.3886 112.628 20.5066C112.605 19.6125 112.252 18.8589 111.589 18.2449C110.927 17.6309 110.149 17.3351 109.256 17.3808C108.375 17.4144 107.621 17.7686 107.008 18.4313C106.394 19.094 106.098 19.8724 106.12 20.7665Z" fill="#969EAF"/>
<path d="M122.211 28.9761L122.956 29.9773L116.371 34.8825L115.724 34.0131L120.979 30.0987L115.523 30.5795L115.444 30.4741L117.469 25.3825L112.214 29.2969L111.567 28.4275L118.153 23.5222L118.898 24.5234L116.946 29.4378L122.211 28.9761Z" fill="#969EAF"/>
<path d="M120.357 37.8212L128.19 39.413L128.596 40.2379L121.234 43.8715L120.755 42.8993L126.424 40.1014L118.591 38.5097L118.185 37.6848L125.547 34.0512L126.026 35.0234L120.357 37.8212Z" fill="#969EAF"/>
<path d="M129.983 61.7405C129.904 60.8241 130.577 60.0242 131.493 59.9451C132.392 59.8675 133.175 60.5418 133.254 61.4582C133.331 62.3583 132.674 63.1404 131.774 63.2181C130.858 63.2971 130.06 62.6406 129.983 61.7405Z" fill="#969EAF"/>
</svg>
