<svg width="22" height="22" viewBox="0 0 22 22" fill="none" xmlns="http://www.w3.org/2000/svg">
<g clip-path="url(#clip0_11_331)">
<path d="M22 18.7001C22 18.9918 21.8841 19.2716 21.6778 19.4779C21.4715 19.6842 21.1917 19.8001 20.9 19.8001H10.7976C10.5736 20.4431 10.155 21.0004 9.59999 21.3948C9.04494 21.7892 8.38091 22.0011 7.7 22.0011C7.0191 22.0011 6.35507 21.7892 5.80002 21.3948C5.24497 21.0004 4.82641 20.4431 4.6024 19.8001H1.1C0.808262 19.8001 0.528473 19.6842 0.322183 19.4779C0.115893 19.2716 0 18.9918 0 18.7001C0 18.4083 0.115893 18.1285 0.322183 17.9223C0.528473 17.716 0.808262 17.6001 1.1 17.6001H4.6024C4.82641 16.9571 5.24497 16.3997 5.80002 16.0053C6.35507 15.6109 7.0191 15.399 7.7 15.399C8.38091 15.399 9.04494 15.6109 9.59999 16.0053C10.155 16.3997 10.5736 16.9571 10.7976 17.6001H20.9C21.1917 17.6001 21.4715 17.716 21.6778 17.9223C21.8841 18.1285 22 18.4083 22 18.7001ZM20.9 9.90007H18.4976C18.2736 9.25707 17.855 8.69972 17.3 8.30532C16.7449 7.91092 16.0809 7.69903 15.4 7.69903C14.7191 7.69903 14.0551 7.91092 13.5 8.30532C12.945 8.69972 12.5264 9.25707 12.3024 9.90007H1.1C0.808262 9.90007 0.528473 10.016 0.322183 10.2222C0.115893 10.4285 0 10.7083 0 11.0001C0 11.2918 0.115893 11.5716 0.322183 11.7779C0.528473 11.9842 0.808262 12.1001 1.1 12.1001H12.3024C12.5264 12.7431 12.945 13.3004 13.5 13.6948C14.0551 14.0892 14.7191 14.3011 15.4 14.3011C16.0809 14.3011 16.7449 14.0892 17.3 13.6948C17.855 13.3004 18.2736 12.7431 18.4976 12.1001H20.9C21.1917 12.1001 21.4715 11.9842 21.6778 11.7779C21.8841 11.5716 22 11.2918 22 11.0001C22 10.7083 21.8841 10.4285 21.6778 10.2222C21.4715 10.016 21.1917 9.90007 20.9 9.90007ZM1.1 4.40007H6.8024C7.02642 5.04307 7.44497 5.60042 8.00002 5.99481C8.55507 6.38921 9.2191 6.60111 9.90001 6.60111C10.5809 6.60111 11.2449 6.38921 11.8 5.99481C12.355 5.60042 12.7736 5.04307 12.9976 4.40007H20.9C21.1917 4.40007 21.4715 4.28417 21.6778 4.07788C21.8841 3.87159 22 3.5918 22 3.30007C22 3.00833 21.8841 2.72854 21.6778 2.52225C21.4715 2.31596 21.1917 2.20006 20.9 2.20006H12.9976C12.7736 1.55707 12.355 0.999713 11.8 0.605315C11.2449 0.210917 10.5809 -0.000976562 9.90001 -0.000976562C9.2191 -0.000976562 8.55507 0.210917 8.00002 0.605315C7.44497 0.999713 7.02642 1.55707 6.8024 2.20006H1.1C0.808262 2.20006 0.528473 2.31596 0.322183 2.52225C0.115893 2.72854 0 3.00833 0 3.30007C0 3.5918 0.115893 3.87159 0.322183 4.07788C0.528473 4.28417 0.808262 4.40007 1.1 4.40007Z" fill="white" />
</g>
<defs>
<clipPath id="clip0_11_331">
<rect width="22" height="22" fill="white"/>
</clipPath>
</defs>
</svg>
