<svg width="23" height="23" viewBox="0 0 23 23" fill="none" xmlns="http://www.w3.org/2000/svg">
<path d="M1.5 10C0.671573 10 -3.62117e-08 10.6716 0 11.5C3.62117e-08 12.3284 0.671573 13 1.5 13L1.5 10ZM22.5607 12.5607C23.1464 11.9749 23.1464 11.0251 22.5607 10.4393L13.0147 0.893398C12.4289 0.307611 11.4792 0.307611 10.8934 0.893398C10.3076 1.47918 10.3076 2.42893 10.8934 3.01472L19.3787 11.5L10.8934 19.9853C10.3076 20.5711 10.3076 21.5208 10.8934 22.1066C11.4792 22.6924 12.4289 22.6924 13.0147 22.1066L22.5607 12.5607ZM1.5 13L21.5 13L21.5 10L1.5 10L1.5 13Z" fill="#FBCD5D"/>
</svg>
