<svg width="23" height="25" viewBox="0 0 23 25" fill="none" xmlns="http://www.w3.org/2000/svg">
<path d="M5.15889 25C3.78024 25 2.4841 24.4631 1.50929 23.4883C-0.503096 21.4759 -0.503096 18.2015 1.50929 16.1891L13.0897 4.60864C14.4561 3.24224 16.6795 3.24224 18.0458 4.60864C19.4122 5.97504 19.4122 8.19838 18.0458 9.56477L9.52774 18.0829C9.18931 18.4213 8.64051 18.4213 8.30204 18.0829C7.96356 17.7444 7.96356 17.1956 8.30204 16.8571L16.8201 8.33902C17.5106 7.64848 17.5106 6.52488 16.8201 5.83434C16.4856 5.49979 16.0408 5.31559 15.5678 5.31559C15.0947 5.31559 14.6499 5.49979 14.3154 5.83434L2.73499 17.4148C1.39846 18.7513 1.39846 20.9261 2.73499 22.2626C3.38248 22.91 4.24329 23.2666 5.15889 23.2666C6.07448 23.2666 6.93535 22.91 7.58278 22.2626L19.435 10.4103C20.3954 9.44996 20.9243 8.17313 20.9243 6.81494C20.9243 5.45674 20.3954 4.17991 19.435 3.21954C17.4525 1.23697 14.2267 1.23703 12.2442 3.21954L3.4543 12.0094C3.11588 12.3478 2.56708 12.3478 2.2286 12.0094C1.89012 11.6709 1.89012 11.1221 2.2286 10.7837L11.0185 1.99378C13.6768 -0.664593 18.0024 -0.664593 20.6607 1.99378C21.9485 3.28153 22.6577 4.99375 22.6577 6.81494C22.6577 8.63612 21.9485 10.3483 20.6607 11.6361L8.80848 23.4883C7.83367 24.4632 6.53753 25 5.15889 25Z" fill="#2F80ED"/>
</svg>
