<svg width="16" height="16" viewBox="0 0 16 16" fill="none" xmlns="http://www.w3.org/2000/svg">
<path d="M0 16L1.11934 12.0245C0.399537 10.8017 0.0205583 9.41034 0.0205583 7.98107C0.0205583 3.58029 3.60085 0 8.00163 0C12.4024 0 15.9826 3.58029 15.9826 7.98107C15.9826 12.3819 12.4024 15.9621 8.00163 15.9621C6.63037 15.9621 5.28765 15.6111 4.09982 14.9446L0 16ZM4.30942 13.4927L4.55371 13.6418C5.58936 14.2741 6.78166 14.6083 8.00163 14.6083C11.6559 14.6083 14.6288 11.6353 14.6288 7.98107C14.6288 4.32682 11.6559 1.35385 8.00163 1.35385C4.34738 1.35385 1.37441 4.32682 1.37441 7.98107C1.37441 9.25435 1.73629 10.4908 2.42084 11.5568L2.58536 11.813L1.94077 14.1024L4.30942 13.4927Z" fill="#64D05D"/>
<path d="M5.75971 4.26623L5.24183 4.238C5.07917 4.22912 4.91962 4.28348 4.79667 4.39028C4.5456 4.6083 4.14416 5.0298 4.02086 5.57907C3.83698 6.39805 4.12114 7.4009 4.85659 8.40376C5.59203 9.40661 6.96258 11.0112 9.38613 11.6965C10.1671 11.9173 10.7815 11.7684 11.2555 11.4652C11.6309 11.2251 11.8897 10.8396 11.9829 10.4039L12.0656 10.0177C12.0919 9.89495 12.0296 9.7704 11.9155 9.71785L10.1653 8.9111C10.0517 8.85875 9.91694 8.89185 9.84053 8.99088L9.15342 9.88162C9.10152 9.94891 9.01267 9.97558 8.93244 9.9474C8.4619 9.78203 6.88571 9.1219 6.02085 7.45596C5.98335 7.3837 5.99267 7.296 6.04587 7.23438L6.70254 6.47472C6.76963 6.39715 6.78658 6.28809 6.74627 6.19382L5.99182 4.42874C5.95166 4.33477 5.86165 4.2718 5.75971 4.26623Z" fill="#64D05D"/>
</svg>
