<svg width="20" height="19" viewBox="0 0 20 19" fill="none" xmlns="http://www.w3.org/2000/svg">
<path d="M19.3588 15.4207L13.1187 9.49736L19.3588 3.57405C20.2137 2.76104 20.2137 1.43068 19.3588 0.617672C18.4927 -0.205891 17.1048 -0.205891 16.2387 0.617672L10.0097 6.54098L3.7696 0.617672C2.90354 -0.195332 1.51561 -0.205891 0.649549 0.617672C-0.205413 1.44123 -0.205413 2.76104 0.649549 3.57405L6.88966 9.49736L0.649549 15.4207C-0.216516 16.2337 -0.216516 17.564 0.649549 18.3771C1.08258 18.7888 1.64885 18.9894 2.20402 18.9894C2.75919 18.9894 3.33657 18.7888 3.7585 18.3771L10.0097 12.4643L16.2498 18.3876C16.6829 18.7994 17.238 19 17.8043 19C18.3706 19 18.9368 18.7994 19.3588 18.3876C20.2137 17.564 20.2137 16.2337 19.3588 15.4207Z" fill="#A0A0A0"/>
</svg>
