<svg width="16" height="16" viewBox="0 0 16 16" fill="none" xmlns="http://www.w3.org/2000/svg">
<path fill-rule="evenodd" clip-rule="evenodd" d="M0.984327 0.984323C1.6301 0.338559 2.6771 0.338559 3.32287 0.984323L15.0156 12.6769C15.6613 13.3227 15.6613 14.3697 15.0156 15.0154C14.3698 15.6612 13.3228 15.6612 12.677 15.0154L0.984327 3.32284C0.338558 2.67708 0.338558 1.63009 0.984327 0.984323Z" fill="white"/>
<path fill-rule="evenodd" clip-rule="evenodd" d="M15.0157 0.984573C15.6614 1.63034 15.6614 2.67733 15.0157 3.32309L3.32298 15.0157C2.67721 15.6614 1.63021 15.6614 0.984443 15.0157C0.338674 14.3699 0.338674 13.3229 0.984443 12.6772L12.6771 0.984573C13.3229 0.338809 14.3699 0.338809 15.0157 0.984573Z" fill="white"/>
</svg>
