<svg width="75" height="75" viewBox="0 0 75 75" fill="none" xmlns="http://www.w3.org/2000/svg">
<g clip-path="url(#clip0_29_621)">
<mask id="mask0_29_621" style="mask-type:luminance" maskUnits="userSpaceOnUse" x="0" y="0" width="75" height="75">
<path d="M73.7498 73.75V1.25022H1.25V73.75H73.7498Z" fill="white" stroke="white" stroke-width="2.5"/>
</mask>
<g mask="url(#mask0_29_621)">
<path d="M10.9863 11.9336C11.5094 11.9336 11.9336 11.5095 11.9336 10.9863C11.9336 10.4632 11.5094 10.0391 10.9863 10.0391C10.4632 10.0391 10.0391 10.4632 10.0391 10.9863C10.0391 11.5095 10.4632 11.9336 10.9863 11.9336Z" fill="#3179DF" stroke="#3179DF" stroke-width="2.5"/>
<path d="M72.8025 72.8027H2.19727V2.19748H72.8025V72.8027Z" stroke="#3179DF" stroke-width="2.5" stroke-miterlimit="10" stroke-linecap="round" stroke-linejoin="round"/>
<path d="M19.7754 11.9336C20.2985 11.9336 20.7226 11.5095 20.7226 10.9863C20.7226 10.4632 20.2985 10.0391 19.7754 10.0391C19.2523 10.0391 18.8281 10.4632 18.8281 10.9863C18.8281 11.5095 19.2523 11.9336 19.7754 11.9336Z" fill="#3179DF" stroke="#3179DF" stroke-width="2.5"/>
<path d="M28.5643 11.9336C29.0874 11.9336 29.5116 11.5095 29.5116 10.9863C29.5116 10.4632 29.0874 10.0391 28.5643 10.0391C28.0412 10.0391 27.6171 10.4632 27.6171 10.9863C27.6171 11.5095 28.0412 11.9336 28.5643 11.9336Z" fill="#3179DF" stroke="#3179DF" stroke-width="2.5"/>
<path d="M2.19727 19.7754H31.4941L37.3534 10.9864H72.8025" stroke="#3179DF" stroke-width="2.5" stroke-miterlimit="10" stroke-linecap="round" stroke-linejoin="round"/>
<path d="M51.4159 46.2891C51.4159 45.3308 51.3188 44.3954 51.1342 43.4916L54.9202 41.3057L50.5257 33.6944L46.7241 35.8892C45.3333 34.6546 43.6985 33.6934 41.8944 33.0925V28.711H33.1054V33.0925C31.3013 33.6934 29.6665 34.6546 28.2757 35.8892L24.4741 33.6944L20.0796 41.3057L23.8656 43.4916C23.6779 44.4122 23.5835 45.3495 23.5839 46.2891C23.5839 47.2474 23.681 48.1829 23.8656 49.0867L20.0796 51.2725L24.4741 58.8838L28.2757 56.689C29.6665 57.9236 31.3013 58.8848 33.1054 59.4857V63.8672H41.8944V59.4857C43.6985 58.8848 45.3333 57.9236 46.7241 56.689L50.5257 58.8838L54.9202 51.2725L51.1342 49.0867C51.3219 48.166 51.4163 47.2287 51.4159 46.2891Z" stroke="#CE3C46" stroke-width="2.5" stroke-miterlimit="10" stroke-linecap="round" stroke-linejoin="round"/>
<path d="M43.3592 46.2891C43.3592 49.5252 40.736 52.1484 37.4999 52.1484C34.2637 52.1484 31.6405 49.5252 31.6405 46.2891C31.6405 43.053 34.2637 40.4297 37.4999 40.4297C40.736 40.4297 43.3592 43.053 43.3592 46.2891Z" stroke="#CE3C46" stroke-width="2.5" stroke-miterlimit="10" stroke-linecap="round" stroke-linejoin="round"/>
</g>
</g>
<defs>
<clipPath id="clip0_29_621">
<rect width="75" height="75" fill="white"/>
</clipPath>
</defs>
</svg>
