<svg width="21" height="30" viewBox="0 0 21 30" fill="none" xmlns="http://www.w3.org/2000/svg">
<path d="M19.2504 11.9523C18.5863 11.9523 18.0473 12.4926 18.0473 13.1555V16.1634C18.0473 16.4955 17.7778 16.765 17.4457 16.765C17.1136 16.765 16.8441 16.4955 16.8441 16.1634V11.9523C16.8441 11.2894 16.3051 10.7492 15.641 10.7492C14.9768 10.7492 14.4378 11.2894 14.4378 11.9523V16.1634C14.4378 16.4955 14.1683 16.765 13.8362 16.765C13.5042 16.765 13.2346 16.4955 13.2346 16.1634V10.7492C13.2346 10.0862 12.6957 9.54606 12.0315 9.54606C11.3674 9.54606 10.8284 10.0863 10.8284 10.7492V16.1634C10.8284 16.4955 10.5589 16.765 10.2268 16.765C9.89471 16.765 9.62519 16.4955 9.62519 16.1634V4.73341C9.62519 4.07051 9.08619 3.53027 8.42205 3.53027C7.75791 3.53027 7.21892 4.07051 7.21892 4.73341V19.7728C7.21892 19.981 7.11064 20.1747 6.93377 20.2842C6.75809 20.3937 6.53555 20.4033 6.34904 20.3107L2.17047 18.222C1.83716 18.0559 1.46663 17.9681 1.09485 17.9681C0.490887 17.9681 0 18.459 0 19.063C0 19.3625 0.114318 19.6381 0.321242 19.8438L8.102 27.6234C9.63241 29.1563 11.6681 29.9996 13.835 29.9996H13.8362C17.4842 29.9996 20.4536 27.0315 20.4536 23.3823V13.1555C20.4536 12.4926 19.9146 11.9523 19.2504 11.9523Z" fill="#CED8E1"/>
<path fill-rule="evenodd" clip-rule="evenodd" d="M13.8678 0.231423C14.1763 -0.0771411 14.6767 -0.0771411 14.9853 0.231423C15.2939 0.54002 15.2939 1.04031 14.9853 1.34891L13.7769 2.55722H19.6635C20.0999 2.55722 20.4537 2.91101 20.4537 3.3474C20.4537 3.78373 20.0999 4.13757 19.6635 4.13757H13.7769L14.9852 5.34589C15.2938 5.65448 15.2937 6.15483 14.9851 6.46343C14.831 6.61749 14.6281 6.6948 14.4265 6.6948C14.2247 6.6948 14.0218 6.61734 13.8677 6.46337L11.3105 3.90614C11.002 3.59754 11.002 3.09725 11.3105 2.78866L13.8678 0.231423Z" fill="#CED8E1"/>
</svg>
