<svg width="25" height="25" viewBox="0 0 25 25" fill="none" xmlns="http://www.w3.org/2000/svg">
<g clip-path="url(#clip0_29_600)">
<path d="M22.775 3.2875C20.9875 1.25 17.15 0 12.5 0C7.85003 0 4.01253 1.25 2.22503 3.2875C-0.749976 6.7375 -0.749976 18.2875 2.22503 21.7125C4.01253 23.75 7.85003 25 12.5 25C17.15 25 20.9875 23.75 22.775 21.7125C25.75 18.2625 25.75 6.7375 22.775 3.2875ZM12.5 5.9375C12.8091 5.9375 13.1112 6.02914 13.3681 6.20083C13.6251 6.37252 13.8253 6.61655 13.9436 6.90206C14.0619 7.18757 14.0928 7.50174 14.0325 7.80483C13.9722 8.10793 13.8234 8.38634 13.6049 8.60486C13.3864 8.82338 13.108 8.97219 12.8049 9.03248C12.5018 9.09277 12.1876 9.06183 11.9021 8.94356C11.6166 8.8253 11.3725 8.62503 11.2009 8.36808C11.0292 8.11113 10.9375 7.80904 10.9375 7.5C10.9375 7.0856 11.1021 6.68817 11.3952 6.39515C11.6882 6.10212 12.0856 5.9375 12.5 5.9375ZM13.75 19.375H11.25C10.9185 19.375 10.6006 19.2433 10.3661 19.0089C10.1317 18.7745 10 18.4565 10 18.125C10 17.7935 10.1317 17.4755 10.3661 17.2411C10.7495 16.8577 11.25 16.4355 11.25 15.8933V14.1067C11.25 13.5645 10.7495 13.1423 10.3661 12.7589C10.1317 12.5245 10 12.2065 10 11.875C10 11.5435 10.1317 11.2255 10.3661 10.9911C10.6006 10.7567 10.9185 10.625 11.25 10.625H12.5C12.8315 10.625 13.1495 10.7567 13.3839 10.9911C13.6183 11.2255 13.75 11.5435 13.75 11.875V15.8933C13.75 16.4355 14.2505 16.8577 14.6339 17.2411C14.8683 17.4755 15 17.7935 15 18.125C15 18.4565 14.8683 18.7745 14.6339 19.0089C14.3995 19.2433 14.0815 19.375 13.75 19.375Z" fill="url(#paint0_linear_29_600)"/>
</g>
<defs>
<linearGradient id="paint0_linear_29_600" x1="14.2602" y1="6.02273" x2="4.64229" y2="12.8961" gradientUnits="userSpaceOnUse">
<stop stop-color="#4B92FA"/>
<stop offset="1" stop-color="#2C6DCA"/>
</linearGradient>
<clipPath id="clip0_29_600">
<rect width="25" height="25" fill="white"/>
</clipPath>
</defs>
</svg>
