<?xml version="1.0" encoding="utf-8"?><svg viewBox="0 0 502.66 502.66" xmlns="http://www.w3.org/2000/svg" xmlns:xlink="http://www.w3.org/1999/xlink"><style>:root>svg{display:none}:root>svg:target{display:block}</style><svg viewBox="0 0 22 22" id="calculate" xmlns="http://www.w3.org/2000/svg"><path d="M17.427.647H4.577c-.774 0-1.401.628-1.401 1.4v17.908c0 .773.627 1.398 1.4 1.398h12.851c.77 0 1.398-.625 1.398-1.398V2.048A1.4 1.4 0 0 0 17.427.647ZM8.213 18.684a.507.507 0 0 1-.508.508H6.139a.507.507 0 0 1-.508-.508v-1.385c0-.281.227-.508.508-.508h1.566c.281 0 .508.227.508.508v1.385Zm0-3.883a.506.506 0 0 1-.508.505H6.139a.506.506 0 0 1-.508-.505v-1.388c0-.278.227-.504.508-.504h1.566c.281 0 .508.226.508.504v1.388Zm0-3.882a.506.506 0 0 1-.508.505H6.139a.506.506 0 0 1-.508-.505V9.531a.51.51 0 0 1 .508-.508h1.566a.51.51 0 0 1 .508.508v1.388Zm4.076 7.765a.506.506 0 0 1-.504.508h-1.57a.506.506 0 0 1-.504-.508v-1.388c0-.278.226-.505.505-.505h1.569c.278 0 .504.227.504.505v1.388Zm0-3.883a.505.505 0 0 1-.504.505h-1.57a.505.505 0 0 1-.504-.505v-1.388c0-.278.226-.504.505-.504h1.569c.278 0 .504.226.504.504v1.388Zm0-3.882a.505.505 0 0 1-.504.505h-1.57a.505.505 0 0 1-.504-.505V9.531c0-.278.226-.508.505-.508h1.569c.278 0 .504.23.504.508v1.388Zm4.08 7.765a.506.506 0 0 1-.505.508h-1.569a.506.506 0 0 1-.505-.508v-1.388c0-.278.227-.505.505-.505h1.57c.278 0 .504.227.504.505v1.388Zm0-3.883a.505.505 0 0 1-.505.505h-1.569a.505.505 0 0 1-.505-.505v-1.388c0-.278.227-.504.505-.504h1.57c.278 0 .504.226.504.504v1.388Zm0-3.882a.505.505 0 0 1-.505.505h-1.569a.505.505 0 0 1-.505-.505V9.531c0-.278.227-.508.505-.508h1.57c.278 0 .504.23.504.508v1.388Zm.515-4.82a.787.787 0 0 1-.787.786H5.903a.787.787 0 0 1-.786-.787V3.374c0-.433.352-.783.786-.783h10.194c.434 0 .787.35.787.783v2.724Z"/></svg><svg viewBox="0 0 22 22" id="catalogue" xmlns="http://www.w3.org/2000/svg"><g clip-path="url(#ba)"><path d="M20.167 0h-7.62c-.504 0-1.209.292-1.565.648L.535 11.095a1.838 1.838 0 0 0 0 2.592l7.779 7.778a1.838 1.838 0 0 0 2.591 0l10.447-10.446c.356-.355.648-1.061.648-1.564V1.833A1.84 1.84 0 0 0 20.167 0ZM16.5 7.333a1.834 1.834 0 1 1 0-3.668 1.834 1.834 0 0 1 0 3.668Z"/></g><defs><clipPath id="ba"><path d="M0 0h22v22H0z"/></clipPath></defs></svg><svg viewBox="0 0 134 136" id="d-catalogue" xmlns="http://www.w3.org/2000/svg"><path d="m127.299 87.22-5.468 2.774.47-1.367 5.077-2.596-3.742-1.287.353-1.025 7.762 2.67-.353 1.025-3.431-1.18 2.16 4.877-.481 1.398-2.347-5.29Zm-3.811 14.114 1.412.772-.519.951-7.204-3.935.519-.951 1.412.77c-.689-1.237-.695-2.494.005-3.777.559-1.024 1.4-1.706 2.536-2.04 1.128-.32 2.218-.192 3.27.382 1.052.575 1.748 1.423 2.09 2.546.333 1.136.213 2.212-.346 3.236-.7 1.283-1.761 1.958-3.175 2.046Zm-1.569-7.164c-.846.249-1.49.777-1.923 1.57-.433.793-.529 1.62-.28 2.467.262.854.79 1.498 1.582 1.931.793.433 1.62.529 2.466.28.861-.241 1.505-.769 1.938-1.562.433-.792.529-1.62.266-2.474-.248-.847-.776-1.491-1.568-1.924a3.198 3.198 0 0 0-2.481-.288Zm.647 11.708-4.239 5.442-.829-.646 1.786-2.293-5.645-4.401.666-.856 5.645 4.401 1.787-2.293.829.646ZM110 117.394l1.097 1.178-.794.739-5.592-6.01.793-.739 1.096 1.178c-.264-1.392.128-2.587 1.197-3.583.853-.795 1.866-1.177 3.049-1.135 1.172.053 2.166.518 2.982 1.396.817.877 1.21 1.903 1.179 3.075-.042 1.184-.495 2.168-1.349 2.962-1.069.997-2.288 1.302-3.658.939Zm.773-7.294c-.882-.031-1.659.266-2.32.882-.661.616-1.013 1.37-1.045 2.252-.02.894.277 1.672.892 2.333.615.661 1.369 1.014 2.251 1.045.893.043 1.67-.254 2.331-.87s1.014-1.37 1.034-2.264c.032-.883-.266-1.66-.881-2.321-.615-.661-1.369-1.014-2.262-1.057Zm-4.598 12.356-4.923 3.213-4.484-6.877.907-.593 3.911 5.998 3.107-2.029-2-3.068c-.744-1.141-1.044-2.083-.882-2.796.148-.705.627-1.293 1.419-1.731l.557.852c-1.117.573-1.271 1.419-.186 3.083l2.574 3.948Zm-17.695 1.406c.448-1.085 1.223-1.862 2.325-2.333 1.103-.471 2.215-.5 3.307-.074 1.1.441 1.876 1.216 2.353 2.334.477 1.118.5 2.216.052 3.3-.442 1.099-1.232 1.884-2.334 2.355-1.102.471-2.2.493-3.299.052-1.092-.426-1.884-1.195-2.361-2.313-.477-1.118-.484-2.222-.043-3.321Zm5.22-1.409c-.82-.329-1.652-.313-2.482.042-.83.355-1.418.945-1.747 1.765a3.199 3.199 0 0 0 .048 2.497c.355.831.945 1.418 1.763 1.747.826.344 1.658.328 2.488-.027.83-.355 1.418-.945 1.74-1.78.33-.819.313-1.651-.041-2.482a3.196 3.196 0 0 0-1.77-1.762Zm-7.612 9.808-5.096 1.281-.255-1.02 4.044-1.016-1.742-6.946 1.051-.264 1.998 7.965Zm-18.166-5.709c1.232-.013 2.27.387 3.1 1.199.829.829 1.25 1.843 1.262 3.059.013 1.215-.387 2.238-1.2 3.068-.812.846-1.842 1.268-3.073 1.281-1.625.017-3.013-.806-3.617-2.114l.88-.519c.454.981 1.495 1.594 2.726 1.581.903-.009 1.671-.329 2.289-.976.617-.631.921-1.406.912-2.31a3.2 3.2 0 0 0-.96-2.306c-.63-.617-1.405-.921-2.308-.912-1.231.013-2.226.648-2.758 1.639l-.908-.516c.66-1.321 2.063-2.157 3.655-2.174Zm-19.634 5.797 1.72-6.952-1.275-.315.78-3.158 1.053.261-.529 2.136 6.757 1.672-1.972 7.972-1.052-.26 1.72-6.952-4.43-1.096-1.72 6.952-1.052-.26Zm-8.516-2.931c-1.11-.495-1.835-1.286-2.155-2.382-.342-1.088-.272-2.172.203-3.237.047-.105.136-.263.237-.452l6.582 2.937c.481-1.602-.275-3.09-1.88-3.806-1.139-.509-2.22-.38-2.982.198l-.642-.898c1.135-.771 2.614-.903 4.068-.254 1.184.529 1.976 1.332 2.383 2.395.407 1.063.36 2.175-.148 3.315-.502 1.125-1.277 1.895-2.346 2.317-1.07.422-2.166.383-3.32-.133Zm.428-.96c1.56.696 3.153.185 4.01-1.214l-5.591-2.495c-.25.842-.224 1.591.091 2.253a2.933 2.933 0 0 0 1.49 1.456Zm-10.241-8.923-2.005 2.967-.898-.608 4.599-6.804.897.607-2.005 2.967 3.917 2.649 2.005-2.967.898.607-4.599 6.804-.897-.607 2.005-2.966-3.917-2.649Zm-10.647-6.638-1.124 1.152-.776-.757 5.735-5.878.775.757-1.124 1.152c1.378-.331 2.59.003 3.635 1.024.834.814 1.264 1.808 1.278 2.993.003 1.173-.415 2.188-1.252 3.047-.837.858-1.842 1.3-3.014 1.326-1.184.014-2.188-.391-3.022-1.206-1.045-1.021-1.408-2.224-1.111-3.61Zm7.319.421c-.01-.883-.345-1.645-.99-2.276-.647-.631-1.417-.947-2.3-.936a3.198 3.198 0 0 0-2.286 1.004c-.63.646-.947 1.417-.936 2.3 0 .894.333 1.656.98 2.287.645.631 1.416.947 2.31.924.881-.01 1.644-.345 2.274-.992a3.2 3.2 0 0 0 .948-2.311Zm-16.043-8.924-.716-1.022 6.725-4.712.622.888-5.367 3.76 5.468-.322.075.108-2.172 5.03 5.366-3.759.622.888-6.725 4.711-.716-1.022 2.094-4.856-5.276.308Zm2.307-8.497-7.79-1.79-.385-.835 7.453-3.445.454.984-5.738 2.652 7.79 1.791.385.835-7.453 3.445-.454-.984 5.738-2.653Zm-8.961-24.18c.055.918-.639 1.7-1.557 1.755-.901.054-1.666-.64-1.72-1.559a1.62 1.62 0 0 1 1.525-1.72c.918-.055 1.698.622 1.752 1.524Zm2.306-22.05 5.39-2.921-.433 1.38-5.005 2.732 3.775 1.185-.325 1.034-7.831-2.459.325-1.034 3.461 1.087-2.29-4.817.443-1.41 2.49 5.223Zm3.445-14.258-1.432-.734.494-.965 7.306 3.742-.494.965-1.431-.733c.722 1.218.761 2.475.095 3.776-.531 1.038-1.353 1.743-2.48 2.107-1.12.35-2.213.251-3.28-.295-1.066-.546-1.785-1.376-2.156-2.489-.363-1.127-.272-2.206.26-3.244.665-1.301 1.707-2.004 3.118-2.13Zm1.76 7.12c.84-.272 1.469-.817 1.88-1.62.412-.805.486-1.634.215-2.474a3.197 3.197 0 0 0-1.634-1.889c-.803-.411-1.632-.485-2.472-.214-.854.264-1.484.809-1.895 1.613-.412.804-.486 1.633-.2 2.48.27.84.815 1.47 1.619 1.882a3.196 3.196 0 0 0 2.487.222ZM10.34 31.06l4.074-5.567.847.62-1.717 2.346 5.775 4.23-.64.875-5.775-4.23-1.717 2.346-.848-.62Zm12.155-11.84-1.13-1.145.771-.762 5.767 5.843-.771.762-1.13-1.145c.304 1.384-.052 2.59-1.092 3.617-.83.82-1.83 1.231-3.015 1.224-1.172-.019-2.18-.455-3.021-1.308-.842-.853-1.265-1.866-1.27-3.04.009-1.184.433-2.18 1.262-3 1.04-1.027 2.25-1.368 3.63-1.046Zm-.558 7.314c.883.006 1.65-.315 2.293-.95.643-.634.973-1.4.979-2.282a3.2 3.2 0 0 0-.96-2.305c-.635-.643-1.4-.973-2.281-.979-.894-.017-1.663.304-2.305.939-.643.634-.973 1.4-.967 2.293-.006.883.315 1.652.949 2.294a3.196 3.196 0 0 0 2.292.99Zm4.435-12.672 4.84-3.338 4.658 6.761-.893.615-4.062-5.895-3.055 2.107 2.078 3.016c.773 1.122 1.097 2.055.954 2.773-.13.708-.595 1.308-1.376 1.767l-.578-.839c1.102-.6 1.235-1.45.108-3.086l-2.674-3.88Zm17.448-1.798c-.415 1.097-1.167 1.897-2.255 2.4-1.089.502-2.2.564-3.304.17-1.111-.41-1.91-1.162-2.42-2.265-.51-1.103-.563-2.2-.147-3.297.409-1.112 1.176-1.919 2.264-2.422 1.088-.503 2.184-.557 3.296-.148 1.104.394 1.918 1.14 2.427 2.243.51 1.103.549 2.207.14 3.319Zm-5.175 1.56c.828.305 1.66.264 2.48-.115.819-.379 1.389-.986 1.694-1.814a3.2 3.2 0 0 0-.121-2.495c-.379-.82-.986-1.39-1.813-1.695-.835-.32-1.667-.28-2.486.1-.82.379-1.39.986-1.688 1.83-.305.827-.265 1.66.114 2.48.378.82.985 1.39 1.82 1.709ZM46.127 3.52l5.06-1.411.282 1.013-4.017 1.12 1.92 6.898-1.043.292-2.203-7.911Zm18.318 5.194c-1.23.045-2.28-.327-3.13-1.117-.85-.807-1.298-1.81-1.343-3.024-.045-1.214.328-2.247 1.118-3.098.79-.868 1.808-1.317 3.039-1.362 1.624-.06 3.033.726 3.672 2.017l-.868.541c-.479-.968-1.535-1.553-2.766-1.508-.902.034-1.662.374-2.262 1.037-.6.647-.883 1.43-.85 2.333a3.198 3.198 0 0 0 1.02 2.28c.646.6 1.429.884 2.331.85 1.23-.045 2.209-.706 2.714-1.711l.921.492c-.624 1.338-2.005 2.21-3.596 2.27Zm19.308-6.387L82.22 9.323l1.283.28-.695 3.178-1.059-.232.47-2.15-6.799-1.488L77.177.888l1.059.232-1.532 6.996 4.459.975 1.531-6.996 1.059.232Zm8.385 2.571c1.124.46 1.874 1.23 2.227 2.315.375 1.077.338 2.163-.104 3.242-.043.106-.127.267-.223.459L87.369 8.18c-.431 1.616.37 3.08 1.995 3.747 1.155.473 2.232.311 2.975-.29l.67.878c-1.11.806-2.585.982-4.058.378-1.2-.492-2.017-1.27-2.456-2.32-.44-1.05-.427-2.163.047-3.318.467-1.14 1.217-1.933 2.273-2.388 1.056-.455 2.153-.449 3.323.03Zm-.398.973c-1.58-.648-3.158-.088-3.972 1.336l5.666 2.323c.223-.85.175-1.597-.16-2.25a2.935 2.935 0 0 0-1.534-1.41Zm10.648 8.639 1.914-3.026.916.58-4.391 6.94-.916-.58 1.915-3.025-3.995-2.53-1.915 3.026-.915-.58 4.39-6.94.916.58-1.914 3.026 3.995 2.53Zm11.06 6.488 1.094-1.18.794.736-5.58 6.025-.795-.737 1.094-1.18c-1.369.365-2.589.063-3.66-.93-.855-.793-1.31-1.775-1.355-2.96-.033-1.172.358-2.198 1.173-3.077.815-.88 1.808-1.348 2.979-1.404 1.183-.045 2.197.334 3.051 1.127 1.072.994 1.466 2.187 1.205 3.58Zm-7.328-.232c.033.883.387 1.636 1.049 2.25.663.614 1.441.91 2.322.876a3.197 3.197 0 0 0 2.26-1.062c.614-.663.91-1.441.877-2.323-.023-.895-.376-1.648-1.039-2.262-.662-.614-1.44-.91-2.333-.864-.881.033-1.635.388-2.248 1.05a3.201 3.201 0 0 0-.888 2.335Zm16.091 8.21.745 1.001-6.585 4.905-.647-.869 5.255-3.914-5.456.48-.079-.105 2.025-5.091-5.255 3.914-.647-.87 6.586-4.905.745 1.001-1.952 4.915 5.265-.462Zm-1.854 8.845 7.833 1.592.406.825-7.362 3.633-.479-.972 5.669-2.798-7.833-1.591-.406-.825 7.362-3.634.479.972-5.669 2.798Zm9.626 23.919a1.655 1.655 0 0 1 1.51-1.795c.899-.078 1.682.597 1.761 1.513a1.62 1.62 0 0 1-1.48 1.76c-.916.08-1.714-.577-1.791-1.478Z"/></svg><svg viewBox="0 0 22 22" id="download-list" xmlns="http://www.w3.org/2000/svg"><g clip-path="url(#da)"><path d="M16.438 10.028a.685.685 0 0 0-.625-.403h-2.75V.687A.688.688 0 0 0 12.375 0h-2.75a.688.688 0 0 0-.687.688v8.937h-2.75a.688.688 0 0 0-.517 1.14l4.812 5.5a.683.683 0 0 0 1.034 0l4.813-5.5a.686.686 0 0 0 .108-.737Z"/><path d="M18.563 15.125v4.125H3.438v-4.125H.688v5.5c0 .76.616 1.375 1.375 1.375h17.875c.76 0 1.375-.615 1.375-1.375v-5.5h-2.75Z"/></g><defs><clipPath id="da"><path d="M0 0h22v22H0z"/></clipPath></defs></svg><svg viewBox="0 0 502.664 502.664" xml:space="preserve" id="icon" xmlns="http://www.w3.org/2000/svg"><path d="M153.821 358.226 0 274.337v-46.463l153.821-83.414v54.574L46.636 250.523l107.185 53.431v54.272zm26.273 29.358L282.103 115.08h32.227L212.084 387.584h-31.99zm168.749-29.358v-54.272l107.164-52.999-107.164-52.59v-53.927l153.821 83.522v46.183l-153.821 84.083z"/></svg><svg viewBox="0 0 22 22" id="options" xmlns="http://www.w3.org/2000/svg"><g clip-path="url(#fa)"><path d="M22 18.7a1.1 1.1 0 0 1-1.1 1.1H10.798a3.28 3.28 0 0 1-6.196 0H1.1a1.1 1.1 0 0 1 0-2.2h3.502a3.28 3.28 0 0 1 6.196 0H20.9a1.1 1.1 0 0 1 1.1 1.1Zm-1.1-8.8h-2.402a3.28 3.28 0 0 0-6.196 0H1.1a1.1 1.1 0 0 0 0 2.2h11.202a3.28 3.28 0 0 0 6.196 0H20.9a1.1 1.1 0 0 0 0-2.2ZM1.1 4.4h5.702a3.28 3.28 0 0 0 6.196 0H20.9a1.1 1.1 0 0 0 0-2.2h-7.902a3.28 3.28 0 0 0-6.196 0H1.1a1.1 1.1 0 0 0 0 2.2Z"/></g><defs><clipPath id="fa"><path d="M0 0h22v22H0z"/></clipPath></defs></svg><svg viewBox="0 0 22 22" id="shildik" xmlns="http://www.w3.org/2000/svg"><g clip-path="url(#ga)"><path d="m.638 18.71-.022.023c-.297-.65-.484-1.386-.561-2.2.077.803.286 1.529.583 2.178ZM7.7 9.219a2.618 2.618 0 1 0 0-5.236 2.618 2.618 0 0 0 0 5.236Z"/><path d="M15.609 0H6.391C2.387 0 0 2.387 0 6.391v9.218c0 1.199.209 2.244.616 3.124C1.562 20.823 3.586 22 6.391 22h9.218c4.004 0 6.39-2.387 6.39-6.391V6.391C22 2.387 19.614 0 15.61 0Zm4.598 11.55c-.858-.737-2.244-.737-3.102 0l-4.576 3.927c-.858.737-2.244.737-3.102 0l-.374-.308c-.781-.682-2.024-.748-2.904-.154l-4.114 2.761c-.242-.616-.385-1.331-.385-2.167V6.391c0-3.102 1.639-4.741 4.741-4.741h9.218c3.102 0 4.74 1.639 4.74 4.741v5.28l-.142-.121Z"/></g><defs><clipPath id="ga"><path d="M0 0h22v22H0z"/></clipPath></defs></svg></svg>