<svg width="34" height="33" viewBox="0 0 34 33" fill="none" xmlns="http://www.w3.org/2000/svg">
<path d="M17.3528 33C26.4655 33 33.8528 25.6127 33.8528 16.5C33.8528 7.3873 26.4655 0 17.3528 0C8.24008 0 0.852783 7.3873 0.852783 16.5C0.852783 25.6127 8.24008 33 17.3528 33Z" fill="#039BE5"/>
<path d="M8.40376 16.1435L24.3125 10.0096C25.0509 9.74289 25.6958 10.1898 25.4565 11.3063L25.4579 11.3049L22.7491 24.0663C22.5484 24.971 22.0108 25.191 21.2586 24.7648L17.1336 21.7246L15.144 23.6414C14.924 23.8614 14.7384 24.047 14.3121 24.047L14.605 19.8491L22.25 12.9425C22.5828 12.6496 22.1758 12.4846 21.7371 12.7761L12.2895 18.7244L8.21676 17.4539C7.33263 17.1734 7.31338 16.5698 8.40376 16.1435Z" fill="white"/>
</svg>
