<svg width="51" height="35" viewBox="0 0 51 35" fill="none" xmlns="http://www.w3.org/2000/svg">
<path d="M26.8474 35C20.2215 34.7798 15.093 34.6545 9.97072 34.4126C8.40755 34.3381 6.79866 34.1278 5.31816 33.6515C2.59327 32.7756 1.03886 30.8018 0.634921 27.9515C-0.165451 22.3036 -0.0971872 16.6365 0.230351 10.9663C0.320534 9.40932 0.608618 7.86476 0.774579 6.31152C1.09711 3.28877 4.1151 1.07056 6.96963 0.743041C13.5906 -0.0186933 20.2378 -0.0404041 26.885 0.0222466C31.4117 0.0650476 35.9377 0.23315 40.4613 0.409937C41.876 0.465144 43.2983 0.649375 44.6886 0.917967C47.7523 1.51036 49.5246 3.40849 50.0645 6.45729C50.7947 10.5823 50.9857 14.747 50.8323 18.9136C50.7164 22.0673 50.3882 25.2159 50.0582 28.3572C49.6937 31.824 46.6632 33.8772 43.9339 34.0553C37.7483 34.4591 31.5557 34.7457 26.8474 35Z" fill="url(#paint0_linear_1_250)"/>
<path d="M20.5989 25.1695C24.8764 22.5685 29.0492 20.0296 33.3473 17.4156C29.058 14.8048 24.8858 12.2653 20.5989 9.65625V25.1695Z" fill="white"/>
<defs>
<linearGradient id="paint0_linear_1_250" x1="22.3364" y1="8.58988" x2="29.7467" y2="30.3744" gradientUnits="userSpaceOnUse">
<stop stop-color="#E52D27"/>
<stop offset="1" stop-color="#B31217"/>
</linearGradient>
</defs>
</svg>
