<svg width="29" height="21" viewBox="0 0 29 21" fill="none" xmlns="http://www.w3.org/2000/svg">
<path d="M22.5051 0.0175781H5.58614C2.50585 0.0175781 0 2.45376 0 5.44773V14.5874C0 17.582 2.50585 20.0176 5.58614 20.0176H22.5051C25.5854 20.0176 28.0912 17.5814 28.0912 14.5874V5.44773C28.0912 2.45376 25.5854 0.0175781 22.5051 0.0175781ZM26.9447 14.588C26.9447 16.9697 24.953 18.907 22.5051 18.907H5.58614C3.13819 18.907 1.14658 16.9692 1.14658 14.588V5.44773C1.14658 3.06655 3.13819 1.12872 5.58614 1.12872H22.5051C24.953 1.12872 26.9447 3.06655 26.9447 5.44773V14.588Z" fill="white"/>
<path d="M19.1258 9.81686L11.1829 5.30841C11.0063 5.2084 10.7867 5.20674 10.6084 5.30563C10.4301 5.40452 10.3201 5.58841 10.3201 5.78786V14.8042C10.3201 15.0031 10.4301 15.1876 10.6079 15.2865C10.6961 15.3354 10.7948 15.3598 10.8934 15.3598C10.9937 15.3598 11.0934 15.3342 11.1829 15.2837L19.1258 10.7763C19.3012 10.6769 19.4096 10.4941 19.4096 10.2969C19.4096 10.0996 19.3018 9.91631 19.1258 9.81686ZM11.4666 13.8348V6.75678L17.7018 10.2963L11.4666 13.8348Z" fill="white"/>
</svg>
